<svg width="1111" height="1080" viewBox="0 0 1111 1080" fill="none" xmlns="http://www.w3.org/2000/svg">
<rect width="1111" height="1080" fill="#1334B3"/>
<path opacity="0.05" d="M175 222.937C175 218.727 178.263 215.237 182.464 214.955L947.464 163.573C952.083 163.263 956 166.926 956 171.555V660.481C956 665.097 952.105 668.755 947.498 668.465L182.498 620.359C178.283 620.094 175 616.598 175 612.375V222.937Z" fill="white"/>
<g filter="url(#filter0_d_1_18613)">
<path d="M243 163.795C243 151.716 253.625 142.394 265.601 143.965L869.821 223.218C879.776 224.524 887.219 233.008 887.219 243.048V598.763C887.219 608.884 879.658 617.41 869.609 618.619L265.39 691.338C253.482 692.771 243 683.474 243 671.481V163.795Z" fill="white"/>
</g>
<path d="M296.556 809.352C294.977 809.352 293.473 809.128 292.044 808.68C290.615 808.232 289.441 807.624 288.524 806.856L290.092 803.112C291.991 804.52 294.081 805.224 296.364 805.224C298.967 805.224 300.268 804.253 300.268 802.312C300.268 800.52 299.052 799.624 296.62 799.624H292.844V795.624H296.14C297.207 795.624 298.049 795.379 298.668 794.888C299.287 794.397 299.596 793.715 299.596 792.84C299.596 791.091 298.455 790.216 296.172 790.216C294.039 790.216 292.14 790.931 290.476 792.36L288.908 788.712C289.847 787.88 290.999 787.24 292.364 786.792C293.729 786.323 295.148 786.088 296.62 786.088C299.052 786.088 300.951 786.632 302.316 787.72C303.681 788.808 304.364 790.301 304.364 792.2C304.364 793.373 304.065 794.408 303.468 795.304C302.871 796.2 302.039 796.851 300.972 797.256C302.252 797.619 303.244 798.291 303.948 799.272C304.673 800.232 305.036 801.395 305.036 802.76C305.036 804.808 304.279 806.419 302.764 807.592C301.249 808.765 299.18 809.352 296.556 809.352ZM316.992 809.352C314.112 809.352 311.882 808.371 310.304 806.408C308.746 804.424 307.968 801.629 307.968 798.024C307.968 794.248 308.853 791.315 310.624 789.224C312.394 787.133 314.848 786.088 317.984 786.088C319.2 786.088 320.394 786.301 321.568 786.728C322.762 787.155 323.808 787.752 324.704 788.52L323.104 792.2C322.336 791.539 321.504 791.048 320.608 790.728C319.733 790.387 318.837 790.216 317.92 790.216C314.421 790.216 312.672 792.509 312.672 797.096V797.704C313.12 796.637 313.813 795.816 314.752 795.24C315.69 794.643 316.768 794.344 317.984 794.344C319.264 794.344 320.394 794.664 321.376 795.304C322.378 795.923 323.168 796.787 323.744 797.896C324.32 798.984 324.608 800.232 324.608 801.64C324.608 803.133 324.277 804.467 323.616 805.64C322.976 806.792 322.08 807.699 320.928 808.36C319.797 809.021 318.485 809.352 316.992 809.352ZM316.736 805.48C317.717 805.48 318.506 805.149 319.104 804.488C319.722 803.805 320.032 802.92 320.032 801.832C320.032 800.765 319.722 799.891 319.104 799.208C318.506 798.525 317.717 798.184 316.736 798.184C315.733 798.184 314.922 798.525 314.304 799.208C313.706 799.891 313.408 800.765 313.408 801.832C313.408 802.92 313.706 803.805 314.304 804.488C314.922 805.149 315.733 805.48 316.736 805.48ZM335.155 809.352C332.424 809.352 330.334 808.339 328.883 806.312C327.454 804.285 326.739 801.395 326.739 797.64C326.739 793.885 327.454 791.027 328.883 789.064C330.334 787.08 332.424 786.088 335.155 786.088C337.886 786.088 339.966 787.08 341.395 789.064C342.846 791.027 343.571 793.885 343.571 797.64C343.571 801.395 342.846 804.285 341.395 806.312C339.966 808.339 337.886 809.352 335.155 809.352ZM335.155 805.32C336.392 805.32 337.31 804.712 337.907 803.496C338.504 802.259 338.803 800.307 338.803 797.64C338.803 794.973 338.504 793.053 337.907 791.88C337.31 790.707 336.392 790.12 335.155 790.12C333.918 790.12 333 790.707 332.403 791.88C331.806 793.053 331.507 794.973 331.507 797.64C331.507 800.307 331.806 802.259 332.403 803.496C333 804.712 333.918 805.32 335.155 805.32ZM350.727 796.232C349.745 796.232 348.86 796.019 348.071 795.592C347.281 795.144 346.663 794.536 346.215 793.768C345.767 793 345.543 792.125 345.543 791.144C345.543 790.205 345.767 789.352 346.215 788.584C346.684 787.816 347.303 787.219 348.071 786.792C348.86 786.344 349.745 786.12 350.727 786.12C351.708 786.12 352.583 786.344 353.351 786.792C354.14 787.219 354.759 787.816 355.207 788.584C355.676 789.331 355.911 790.184 355.911 791.144C355.911 792.125 355.676 793 355.207 793.768C354.759 794.536 354.14 795.144 353.351 795.592C352.583 796.019 351.708 796.232 350.727 796.232ZM350.727 793.64C351.409 793.64 351.975 793.405 352.423 792.936C352.871 792.467 353.095 791.869 353.095 791.144C353.095 790.461 352.871 789.885 352.423 789.416C351.975 788.925 351.409 788.68 350.727 788.68C350.044 788.68 349.479 788.925 349.031 789.416C348.583 789.885 348.359 790.461 348.359 791.144C348.359 791.869 348.583 792.467 349.031 792.936C349.479 793.405 350.044 793.64 350.727 793.64ZM375.786 809.352C374.015 809.352 372.341 809.128 370.762 808.68C369.205 808.232 367.903 807.624 366.858 806.856L368.298 802.952C369.301 803.656 370.442 804.211 371.722 804.616C373.023 805.021 374.378 805.224 375.786 805.224C377.322 805.224 378.421 804.989 379.082 804.52C379.765 804.029 380.106 803.421 380.106 802.696C380.106 802.077 379.871 801.587 379.402 801.224C378.933 800.861 378.111 800.552 376.938 800.296L373.322 799.528C369.29 798.675 367.274 796.584 367.274 793.256C367.274 791.827 367.658 790.579 368.426 789.512C369.194 788.424 370.261 787.581 371.626 786.984C373.013 786.387 374.613 786.088 376.426 786.088C377.983 786.088 379.445 786.312 380.81 786.76C382.175 787.208 383.306 787.837 384.202 788.648L382.762 792.296C381.013 790.909 378.89 790.216 376.394 790.216C375.05 790.216 374.005 790.483 373.258 791.016C372.533 791.528 372.17 792.2 372.17 793.032C372.17 793.651 372.394 794.152 372.842 794.536C373.29 794.92 374.069 795.229 375.178 795.464L378.794 796.232C382.933 797.128 385.002 799.155 385.002 802.312C385.002 803.72 384.618 804.957 383.85 806.024C383.103 807.069 382.037 807.891 380.65 808.488C379.285 809.064 377.663 809.352 375.786 809.352ZM395.198 809.352C393.513 809.352 392.041 809.021 390.782 808.36C389.545 807.677 388.585 806.728 387.902 805.512C387.219 804.275 386.878 802.813 386.878 801.128C386.878 799.464 387.219 798.024 387.902 796.808C388.585 795.571 389.545 794.621 390.782 793.96C392.041 793.299 393.513 792.968 395.198 792.968C396.883 792.968 398.345 793.299 399.582 793.96C400.841 794.621 401.811 795.571 402.494 796.808C403.198 798.024 403.55 799.464 403.55 801.128C403.55 802.813 403.198 804.275 402.494 805.512C401.811 806.728 400.841 807.677 399.582 808.36C398.345 809.021 396.883 809.352 395.198 809.352ZM395.198 805.736C396.222 805.736 397.054 805.363 397.694 804.616C398.355 803.869 398.686 802.707 398.686 801.128C398.686 799.571 398.355 798.429 397.694 797.704C397.054 796.957 396.222 796.584 395.198 796.584C394.174 796.584 393.342 796.957 392.702 797.704C392.062 798.429 391.742 799.571 391.742 801.128C391.742 802.707 392.062 803.869 392.702 804.616C393.342 805.363 394.174 805.736 395.198 805.736ZM412.186 809.352C410.159 809.352 408.676 808.829 407.738 807.784C406.799 806.717 406.33 805.139 406.33 803.048V786.44H411.162V802.856C411.162 804.563 411.919 805.416 413.434 805.416C413.668 805.416 413.892 805.405 414.106 805.384C414.34 805.363 414.564 805.32 414.778 805.256L414.714 809C413.903 809.235 413.06 809.352 412.186 809.352ZM422.618 809.352C420.613 809.352 419.13 808.797 418.17 807.688C417.231 806.579 416.762 804.915 416.762 802.696V793.288H421.594V802.824C421.594 804.68 422.394 805.608 423.994 805.608C424.911 805.608 425.658 805.288 426.234 804.648C426.831 803.987 427.13 803.123 427.13 802.056V793.288H431.962V809H427.258V806.856C426.213 808.52 424.666 809.352 422.618 809.352ZM443.253 809.352C438.837 809.352 436.629 807.208 436.629 802.92V796.904H433.653V793.288H436.629V788.68H441.461V793.288H446.101V796.904H441.461V802.728C441.461 803.624 441.664 804.296 442.069 804.744C442.496 805.192 443.168 805.416 444.085 805.416C444.362 805.416 444.65 805.384 444.949 805.32C445.269 805.256 445.61 805.171 445.973 805.064L446.677 808.584C446.229 808.819 445.696 809 445.077 809.128C444.458 809.277 443.85 809.352 443.253 809.352ZM448.126 790.248V785.736H453.342V790.248H448.126ZM448.318 809V793.288H453.15V809H448.318ZM464.273 809.352C462.588 809.352 461.116 809.021 459.857 808.36C458.62 807.677 457.66 806.728 456.977 805.512C456.294 804.275 455.953 802.813 455.953 801.128C455.953 799.464 456.294 798.024 456.977 796.808C457.66 795.571 458.62 794.621 459.857 793.96C461.116 793.299 462.588 792.968 464.273 792.968C465.958 792.968 467.42 793.299 468.657 793.96C469.916 794.621 470.886 795.571 471.569 796.808C472.273 798.024 472.625 799.464 472.625 801.128C472.625 802.813 472.273 804.275 471.569 805.512C470.886 806.728 469.916 807.677 468.657 808.36C467.42 809.021 465.958 809.352 464.273 809.352ZM464.273 805.736C465.297 805.736 466.129 805.363 466.769 804.616C467.43 803.869 467.761 802.707 467.761 801.128C467.761 799.571 467.43 798.429 466.769 797.704C466.129 796.957 465.297 796.584 464.273 796.584C463.249 796.584 462.417 796.957 461.777 797.704C461.137 798.429 460.817 799.571 460.817 801.128C460.817 802.707 461.137 803.869 461.777 804.616C462.417 805.363 463.249 805.736 464.273 805.736ZM475.405 809V793.288H480.141V795.592C480.674 794.739 481.389 794.088 482.285 793.64C483.181 793.192 484.183 792.968 485.293 792.968C487.149 792.968 488.535 793.512 489.453 794.6C490.37 795.667 490.829 797.32 490.829 799.56V809H485.997V799.784C485.997 798.696 485.794 797.917 485.389 797.448C484.983 796.957 484.386 796.712 483.597 796.712C482.573 796.712 481.751 797.032 481.133 797.672C480.535 798.312 480.237 799.165 480.237 800.232V809H475.405ZM504.238 809V796.904H501.262V793.288H504.238C504.281 791.069 504.921 789.405 506.158 788.296C507.417 787.165 509.326 786.525 511.886 786.376L513.646 786.248L513.934 789.768L512.43 789.864C511.193 789.928 510.318 790.195 509.806 790.664C509.316 791.112 509.07 791.805 509.07 792.744V793.288H513.166V796.904H509.07V809H504.238ZM522.258 809.352C520.573 809.352 519.101 809.021 517.842 808.36C516.605 807.677 515.645 806.728 514.962 805.512C514.279 804.275 513.938 802.813 513.938 801.128C513.938 799.464 514.279 798.024 514.962 796.808C515.645 795.571 516.605 794.621 517.842 793.96C519.101 793.299 520.573 792.968 522.258 792.968C523.943 792.968 525.405 793.299 526.642 793.96C527.901 794.621 528.871 795.571 529.554 796.808C530.258 798.024 530.61 799.464 530.61 801.128C530.61 802.813 530.258 804.275 529.554 805.512C528.871 806.728 527.901 807.677 526.642 808.36C525.405 809.021 523.943 809.352 522.258 809.352ZM522.258 805.736C523.282 805.736 524.114 805.363 524.754 804.616C525.415 803.869 525.746 802.707 525.746 801.128C525.746 799.571 525.415 798.429 524.754 797.704C524.114 796.957 523.282 796.584 522.258 796.584C521.234 796.584 520.402 796.957 519.762 797.704C519.122 798.429 518.802 799.571 518.802 801.128C518.802 802.707 519.122 803.869 519.762 804.616C520.402 805.363 521.234 805.736 522.258 805.736ZM533.39 809V793.288H538.126V796.008C538.872 794.173 540.472 793.16 542.926 792.968L544.334 792.872L544.622 796.936L541.902 797.224C539.512 797.459 538.318 798.675 538.318 800.872V809H533.39ZM552.987 809L563.355 786.44H567.355L577.723 809H572.731L570.619 804.104H560.091L558.011 809H552.987ZM565.307 791.72L561.755 800.232H568.987L565.371 791.72H565.307ZM584.832 809.352C583.445 809.352 582.155 809.192 580.96 808.872C579.765 808.552 578.773 808.115 577.984 807.56L579.136 804.424C579.925 804.915 580.821 805.309 581.824 805.608C582.848 805.885 583.861 806.024 584.864 806.024C585.76 806.024 586.421 805.885 586.848 805.608C587.275 805.309 587.488 804.925 587.488 804.456C587.488 803.709 586.944 803.24 585.856 803.048L582.496 802.44C581.152 802.205 580.128 801.725 579.424 801C578.72 800.275 578.368 799.325 578.368 798.152C578.368 797.085 578.667 796.168 579.264 795.4C579.861 794.632 580.683 794.035 581.728 793.608C582.773 793.181 583.979 792.968 585.344 792.968C586.475 792.968 587.573 793.117 588.64 793.416C589.707 793.693 590.624 794.141 591.392 794.76L590.176 797.864C589.536 797.395 588.768 797.011 587.872 796.712C586.997 796.413 586.176 796.264 585.408 796.264C584.448 796.264 583.755 796.424 583.328 796.744C582.901 797.043 582.688 797.427 582.688 797.896C582.688 798.643 583.189 799.112 584.192 799.304L587.552 799.912C588.939 800.147 589.995 800.616 590.72 801.32C591.445 802.003 591.808 802.941 591.808 804.136C591.808 805.779 591.168 807.059 589.888 807.976C588.608 808.893 586.923 809.352 584.832 809.352ZM600.422 809.352C599.035 809.352 597.745 809.192 596.55 808.872C595.355 808.552 594.363 808.115 593.574 807.56L594.726 804.424C595.515 804.915 596.411 805.309 597.414 805.608C598.438 805.885 599.451 806.024 600.454 806.024C601.35 806.024 602.011 805.885 602.438 805.608C602.865 805.309 603.078 804.925 603.078 804.456C603.078 803.709 602.534 803.24 601.446 803.048L598.086 802.44C596.742 802.205 595.718 801.725 595.014 801C594.31 800.275 593.958 799.325 593.958 798.152C593.958 797.085 594.257 796.168 594.854 795.4C595.451 794.632 596.273 794.035 597.318 793.608C598.363 793.181 599.569 792.968 600.934 792.968C602.065 792.968 603.163 793.117 604.23 793.416C605.297 793.693 606.214 794.141 606.982 794.76L605.766 797.864C605.126 797.395 604.358 797.011 603.462 796.712C602.587 796.413 601.766 796.264 600.998 796.264C600.038 796.264 599.345 796.424 598.918 796.744C598.491 797.043 598.278 797.427 598.278 797.896C598.278 798.643 598.779 799.112 599.782 799.304L603.142 799.912C604.529 800.147 605.585 800.616 606.31 801.32C607.035 802.003 607.398 802.941 607.398 804.136C607.398 805.779 606.758 807.059 605.478 807.976C604.198 808.893 602.513 809.352 600.422 809.352ZM618.156 809.352C616.3 809.352 614.7 809.021 613.356 808.36C612.033 807.677 611.009 806.728 610.284 805.512C609.58 804.275 609.228 802.824 609.228 801.16C609.228 799.539 609.569 798.12 610.252 796.904C610.956 795.667 611.905 794.707 613.1 794.024C614.316 793.32 615.713 792.968 617.292 792.968C619.575 792.968 621.388 793.693 622.732 795.144C624.076 796.573 624.748 798.515 624.748 800.968V802.184H613.836C614.007 803.421 614.455 804.328 615.18 804.904C615.927 805.459 616.951 805.736 618.252 805.736C619.105 805.736 619.969 805.608 620.844 805.352C621.719 805.096 622.508 804.701 623.212 804.168L624.492 807.4C623.703 807.997 622.732 808.477 621.58 808.84C620.449 809.181 619.308 809.352 618.156 809.352ZM617.484 796.168C616.46 796.168 615.628 796.477 614.988 797.096C614.369 797.715 613.985 798.579 613.836 799.688H620.748C620.62 797.341 619.532 796.168 617.484 796.168ZM635.017 809.352C630.601 809.352 628.393 807.208 628.393 802.92V796.904H625.417V793.288H628.393V788.68H633.225V793.288H637.865V796.904H633.225V802.728C633.225 803.624 633.427 804.296 633.833 804.744C634.259 805.192 634.931 805.416 635.849 805.416C636.126 805.416 636.414 805.384 636.713 805.32C637.033 805.256 637.374 805.171 637.737 805.064L638.441 808.584C637.993 808.819 637.459 809 636.841 809.128C636.222 809.277 635.614 809.352 635.017 809.352ZM649.309 809V786.44H653.437L661.053 800.296L668.637 786.44H672.701V809H668.189V795.24L662.365 805.608H659.581L653.789 795.336V809H649.309ZM682.012 809.352C680.838 809.352 679.804 809.128 678.908 808.68C678.012 808.232 677.297 807.624 676.764 806.856C676.252 806.088 675.996 805.224 675.996 804.264C675.996 803.133 676.294 802.227 676.892 801.544C677.489 800.861 678.46 800.381 679.804 800.104C681.148 799.805 682.929 799.656 685.148 799.656H686.3V799.112C686.3 798.173 686.086 797.512 685.66 797.128C685.233 796.723 684.508 796.52 683.484 796.52C682.63 796.52 681.724 796.659 680.764 796.936C679.825 797.192 678.886 797.587 677.948 798.12L676.636 794.888C677.19 794.525 677.862 794.195 678.652 793.896C679.462 793.597 680.305 793.373 681.18 793.224C682.054 793.053 682.886 792.968 683.676 792.968C686.108 792.968 687.921 793.523 689.116 794.632C690.31 795.72 690.908 797.416 690.908 799.72V809H686.396V806.632C686.076 807.464 685.532 808.125 684.764 808.616C684.017 809.107 683.1 809.352 682.012 809.352ZM683.1 806.12C683.996 806.12 684.753 805.811 685.372 805.192C685.99 804.573 686.3 803.773 686.3 802.792V802.152H685.18C683.537 802.152 682.374 802.301 681.692 802.6C681.009 802.877 680.668 803.368 680.668 804.072C680.668 804.669 680.87 805.16 681.276 805.544C681.702 805.928 682.31 806.12 683.1 806.12ZM694.352 809V793.288H699.088V795.592C699.622 794.739 700.336 794.088 701.232 793.64C702.128 793.192 703.131 792.968 704.24 792.968C706.096 792.968 707.483 793.512 708.4 794.6C709.318 795.667 709.776 797.32 709.776 799.56V809H704.944V799.784C704.944 798.696 704.742 797.917 704.336 797.448C703.931 796.957 703.334 796.712 702.544 796.712C701.52 796.712 700.699 797.032 700.08 797.672C699.483 798.312 699.184 799.165 699.184 800.232V809H694.352ZM718.535 809.352C717.362 809.352 716.327 809.128 715.431 808.68C714.535 808.232 713.821 807.624 713.287 806.856C712.775 806.088 712.519 805.224 712.519 804.264C712.519 803.133 712.818 802.227 713.415 801.544C714.013 800.861 714.983 800.381 716.327 800.104C717.671 799.805 719.453 799.656 721.671 799.656H722.823V799.112C722.823 798.173 722.61 797.512 722.183 797.128C721.757 796.723 721.031 796.52 720.007 796.52C719.154 796.52 718.247 796.659 717.287 796.936C716.349 797.192 715.41 797.587 714.471 798.12L713.159 794.888C713.714 794.525 714.386 794.195 715.175 793.896C715.986 793.597 716.829 793.373 717.703 793.224C718.578 793.053 719.41 792.968 720.199 792.968C722.631 792.968 724.445 793.523 725.639 794.632C726.834 795.72 727.431 797.416 727.431 799.72V809H722.919V806.632C722.599 807.464 722.055 808.125 721.287 808.616C720.541 809.107 719.623 809.352 718.535 809.352ZM719.623 806.12C720.519 806.12 721.277 805.811 721.895 805.192C722.514 804.573 722.823 803.773 722.823 802.792V802.152H721.703C720.061 802.152 718.898 802.301 718.215 802.6C717.533 802.877 717.191 803.368 717.191 804.072C717.191 804.669 717.394 805.16 717.799 805.544C718.226 805.928 718.834 806.12 719.623 806.12ZM738.428 815.112C736.913 815.112 735.495 814.952 734.172 814.632C732.871 814.312 731.729 813.811 730.748 813.128L732.06 809.832C732.913 810.365 733.873 810.771 734.94 811.048C736.028 811.347 737.052 811.496 738.012 811.496C740.743 811.496 742.108 810.237 742.108 807.72V805.928C741.681 806.739 741.009 807.389 740.092 807.88C739.175 808.371 738.172 808.616 737.084 808.616C735.676 808.616 734.449 808.296 733.404 807.656C732.359 806.995 731.548 806.077 730.972 804.904C730.396 803.731 730.108 802.355 730.108 800.776C730.108 799.219 730.396 797.853 730.972 796.68C731.548 795.507 732.359 794.6 733.404 793.96C734.449 793.299 735.676 792.968 737.084 792.968C738.215 792.968 739.228 793.213 740.124 793.704C741.02 794.195 741.681 794.845 742.108 795.656V793.288H746.812V807.176C746.812 809.821 746.097 811.805 744.668 813.128C743.239 814.451 741.159 815.112 738.428 815.112ZM738.524 805C739.591 805 740.444 804.627 741.084 803.88C741.745 803.133 742.076 802.099 742.076 800.776C742.076 799.453 741.745 798.429 741.084 797.704C740.444 796.957 739.591 796.584 738.524 796.584C737.436 796.584 736.572 796.957 735.932 797.704C735.292 798.429 734.972 799.453 734.972 800.776C734.972 802.099 735.292 803.133 735.932 803.88C736.572 804.627 737.436 805 738.524 805ZM758.563 809.352C756.707 809.352 755.107 809.021 753.763 808.36C752.441 807.677 751.417 806.728 750.691 805.512C749.987 804.275 749.635 802.824 749.635 801.16C749.635 799.539 749.977 798.12 750.659 796.904C751.363 795.667 752.313 794.707 753.507 794.024C754.723 793.32 756.121 792.968 757.699 792.968C759.982 792.968 761.795 793.693 763.139 795.144C764.483 796.573 765.155 798.515 765.155 800.968V802.184H754.243C754.414 803.421 754.862 804.328 755.587 804.904C756.334 805.459 757.358 805.736 758.659 805.736C759.513 805.736 760.377 805.608 761.251 805.352C762.126 805.096 762.915 804.701 763.619 804.168L764.899 807.4C764.11 807.997 763.139 808.477 761.987 808.84C760.857 809.181 759.715 809.352 758.563 809.352ZM757.891 796.168C756.867 796.168 756.035 796.477 755.395 797.096C754.777 797.715 754.393 798.579 754.243 799.688H761.155C761.027 797.341 759.939 796.168 757.891 796.168ZM767.87 809V793.288H772.606V795.56C773.075 794.749 773.715 794.12 774.526 793.672C775.358 793.203 776.318 792.968 777.406 792.968C778.515 792.968 779.454 793.213 780.222 793.704C781.011 794.195 781.609 794.941 782.014 795.944C782.505 795.005 783.209 794.28 784.126 793.768C785.065 793.235 786.099 792.968 787.23 792.968C789.022 792.968 790.355 793.512 791.23 794.6C792.105 795.667 792.542 797.32 792.542 799.56V809H787.71V799.72C787.71 798.675 787.539 797.917 787.198 797.448C786.878 796.957 786.323 796.712 785.534 796.712C784.617 796.712 783.902 797.032 783.39 797.672C782.878 798.312 782.622 799.219 782.622 800.392V809H777.79V799.72C777.79 798.675 777.619 797.917 777.278 797.448C776.937 796.957 776.382 796.712 775.614 796.712C774.697 796.712 773.982 797.032 773.47 797.672C772.958 798.312 772.702 799.219 772.702 800.392V809H767.87ZM804.244 809.352C802.388 809.352 800.788 809.021 799.444 808.36C798.121 807.677 797.097 806.728 796.372 805.512C795.668 804.275 795.316 802.824 795.316 801.16C795.316 799.539 795.657 798.12 796.34 796.904C797.044 795.667 797.993 794.707 799.188 794.024C800.404 793.32 801.801 792.968 803.38 792.968C805.662 792.968 807.476 793.693 808.82 795.144C810.164 796.573 810.836 798.515 810.836 800.968V802.184H799.924C800.094 803.421 800.542 804.328 801.268 804.904C802.014 805.459 803.038 805.736 804.34 805.736C805.193 805.736 806.057 805.608 806.932 805.352C807.806 805.096 808.596 804.701 809.3 804.168L810.58 807.4C809.79 807.997 808.82 808.477 807.668 808.84C806.537 809.181 805.396 809.352 804.244 809.352ZM803.572 796.168C802.548 796.168 801.716 796.477 801.076 797.096C800.457 797.715 800.073 798.579 799.924 799.688H806.836C806.708 797.341 805.62 796.168 803.572 796.168ZM813.486 809V793.288H818.222V795.592C818.755 794.739 819.47 794.088 820.366 793.64C821.262 793.192 822.265 792.968 823.374 792.968C825.23 792.968 826.617 793.512 827.534 794.6C828.451 795.667 828.91 797.32 828.91 799.56V809H824.078V799.784C824.078 798.696 823.875 797.917 823.47 797.448C823.065 796.957 822.467 796.712 821.678 796.712C820.654 796.712 819.833 797.032 819.214 797.672C818.617 798.312 818.318 799.165 818.318 800.232V809H813.486ZM840.069 809.352C835.653 809.352 833.445 807.208 833.445 802.92V796.904H830.469V793.288H833.445V788.68H838.277V793.288H842.917V796.904H838.277V802.728C838.277 803.624 838.48 804.296 838.885 804.744C839.312 805.192 839.984 805.416 840.901 805.416C841.179 805.416 841.467 805.384 841.765 805.32C842.085 805.256 842.427 805.171 842.789 805.064L843.493 808.584C843.045 808.819 842.512 809 841.893 809.128C841.275 809.277 840.667 809.352 840.069 809.352Z" fill="white"/>
<path d="M233.626 838V826.72H234.938V836.848H240.682V838H233.626ZM245.371 838.144C244.614 838.144 243.958 837.979 243.403 837.648C242.849 837.317 242.417 836.853 242.107 836.256C241.809 835.648 241.659 834.933 241.659 834.112C241.659 833.291 241.809 832.581 242.107 831.984C242.417 831.376 242.849 830.907 243.403 830.576C243.958 830.245 244.614 830.08 245.371 830.08C246.118 830.08 246.769 830.245 247.323 830.576C247.889 830.907 248.321 831.376 248.619 831.984C248.929 832.581 249.083 833.291 249.083 834.112C249.083 834.933 248.929 835.648 248.619 836.256C248.321 836.853 247.889 837.317 247.323 837.648C246.769 837.979 246.118 838.144 245.371 838.144ZM245.371 837.104C246.097 837.104 246.678 836.848 247.115 836.336C247.553 835.813 247.771 835.072 247.771 834.112C247.771 833.141 247.553 832.4 247.115 831.888C246.678 831.376 246.097 831.12 245.371 831.12C244.635 831.12 244.049 831.376 243.611 831.888C243.185 832.4 242.971 833.141 242.971 834.112C242.971 835.072 243.185 835.813 243.611 836.336C244.049 836.848 244.635 837.104 245.371 837.104ZM251.11 838V830.224H252.374V831.616C252.79 830.677 253.643 830.16 254.934 830.064L255.398 830.016L255.494 831.136L254.678 831.232C253.942 831.296 253.382 831.531 252.998 831.936C252.614 832.331 252.422 832.875 252.422 833.568V838H251.11ZM260.335 838.144C259.108 838.144 258.137 837.787 257.423 837.072C256.708 836.347 256.351 835.365 256.351 834.128C256.351 833.328 256.511 832.624 256.831 832.016C257.151 831.397 257.588 830.923 258.143 830.592C258.708 830.251 259.359 830.08 260.095 830.08C261.151 830.08 261.977 830.421 262.575 831.104C263.172 831.776 263.471 832.704 263.471 833.888V834.384H257.615C257.657 835.269 257.913 835.947 258.383 836.416C258.852 836.875 259.503 837.104 260.335 837.104C260.804 837.104 261.252 837.035 261.679 836.896C262.105 836.747 262.511 836.507 262.895 836.176L263.343 837.088C262.991 837.419 262.543 837.68 261.999 837.872C261.455 838.053 260.9 838.144 260.335 838.144ZM260.127 831.04C259.391 831.04 258.809 831.269 258.383 831.728C257.956 832.187 257.705 832.789 257.631 833.536H262.351C262.319 832.747 262.111 832.133 261.727 831.696C261.353 831.259 260.82 831.04 260.127 831.04ZM265.458 838V830.224H266.722V831.536C266.957 831.067 267.282 830.709 267.698 830.464C268.114 830.208 268.6 830.08 269.154 830.08C270.37 830.08 271.149 830.608 271.49 831.664C271.725 831.173 272.072 830.789 272.53 830.512C272.989 830.224 273.517 830.08 274.114 830.08C275.842 830.08 276.706 831.104 276.706 833.152V838H275.41V833.216C275.41 832.501 275.282 831.979 275.026 831.648C274.781 831.307 274.37 831.136 273.794 831.136C273.165 831.136 272.664 831.36 272.29 831.808C271.917 832.256 271.73 832.853 271.73 833.6V838H270.434V833.216C270.434 832.501 270.306 831.979 270.05 831.648C269.805 831.307 269.394 831.136 268.818 831.136C268.178 831.136 267.672 831.36 267.298 831.808C266.936 832.256 266.754 832.853 266.754 833.6V838H265.458ZM283.239 828.288V826.832H284.839V828.288H283.239ZM283.399 838V830.224H284.695V838H283.399ZM287.198 840.88V830.224H288.462V831.616C288.696 831.136 289.043 830.763 289.502 830.496C289.971 830.219 290.515 830.08 291.134 830.08C291.827 830.08 292.43 830.245 292.942 830.576C293.464 830.896 293.864 831.36 294.142 831.968C294.43 832.565 294.574 833.28 294.574 834.112C294.574 834.933 294.43 835.648 294.142 836.256C293.864 836.853 293.464 837.317 292.942 837.648C292.43 837.979 291.827 838.144 291.134 838.144C290.536 838.144 290.003 838.011 289.534 837.744C289.064 837.477 288.718 837.109 288.494 836.64V840.88H287.198ZM290.862 837.104C291.587 837.104 292.168 836.848 292.606 836.336C293.043 835.813 293.262 835.072 293.262 834.112C293.262 833.141 293.043 832.4 292.606 831.888C292.168 831.376 291.587 831.12 290.862 831.12C290.136 831.12 289.555 831.376 289.118 831.888C288.68 832.4 288.462 833.141 288.462 834.112C288.462 835.072 288.68 835.813 289.118 836.336C289.555 836.848 290.136 837.104 290.862 837.104ZM299.23 838.144C298.622 838.144 298.046 838.059 297.502 837.888C296.958 837.717 296.51 837.477 296.158 837.168L296.574 836.256C296.958 836.565 297.379 836.795 297.838 836.944C298.307 837.083 298.782 837.152 299.262 837.152C299.87 837.152 300.328 837.04 300.638 836.816C300.947 836.592 301.102 836.288 301.102 835.904C301.102 835.605 301 835.371 300.798 835.2C300.595 835.019 300.275 834.88 299.838 834.784L298.382 834.464C297.059 834.176 296.398 833.493 296.398 832.416C296.398 831.712 296.675 831.147 297.23 830.72C297.795 830.293 298.531 830.08 299.438 830.08C299.971 830.08 300.478 830.165 300.958 830.336C301.448 830.496 301.854 830.736 302.174 831.056L301.742 831.968C301.432 831.68 301.07 831.461 300.654 831.312C300.248 831.152 299.843 831.072 299.438 831.072C298.84 831.072 298.387 831.189 298.078 831.424C297.768 831.659 297.614 831.968 297.614 832.352C297.614 832.949 298.008 833.333 298.798 833.504L300.254 833.808C300.936 833.957 301.454 834.197 301.806 834.528C302.158 834.848 302.334 835.285 302.334 835.84C302.334 836.555 302.051 837.12 301.486 837.536C300.92 837.941 300.168 838.144 299.23 838.144ZM307.141 838.144C305.274 838.144 304.341 837.115 304.341 835.056V830.224H305.637V835.04C305.637 835.733 305.775 836.245 306.053 836.576C306.341 836.907 306.789 837.072 307.397 837.072C308.058 837.072 308.597 836.853 309.013 836.416C309.429 835.968 309.637 835.376 309.637 834.64V830.224H310.933V838H309.669V836.688C309.423 837.157 309.077 837.52 308.629 837.776C308.191 838.021 307.695 838.144 307.141 838.144ZM313.47 838V830.224H314.734V831.536C314.968 831.067 315.294 830.709 315.71 830.464C316.126 830.208 316.611 830.08 317.166 830.08C318.382 830.08 319.16 830.608 319.502 831.664C319.736 831.173 320.083 830.789 320.542 830.512C321 830.224 321.528 830.08 322.126 830.08C323.854 830.08 324.718 831.104 324.718 833.152V838H323.422V833.216C323.422 832.501 323.294 831.979 323.038 831.648C322.792 831.307 322.382 831.136 321.806 831.136C321.176 831.136 320.675 831.36 320.302 831.808C319.928 832.256 319.742 832.853 319.742 833.6V838H318.446V833.216C318.446 832.501 318.318 831.979 318.062 831.648C317.816 831.307 317.406 831.136 316.83 831.136C316.19 831.136 315.683 831.36 315.31 831.808C314.947 832.256 314.766 832.853 314.766 833.6V838H313.47ZM334.37 838.144C333.677 838.144 333.069 837.979 332.546 837.648C332.034 837.317 331.634 836.853 331.346 836.256C331.069 835.648 330.93 834.933 330.93 834.112C330.93 833.28 331.069 832.565 331.346 831.968C331.634 831.36 332.034 830.896 332.546 830.576C333.069 830.245 333.677 830.08 334.37 830.08C334.978 830.08 335.511 830.213 335.97 830.48C336.439 830.747 336.786 831.115 337.01 831.584V826.72H338.306V838H337.042V836.576C336.818 837.067 336.471 837.451 336.002 837.728C335.533 838.005 334.989 838.144 334.37 838.144ZM334.642 837.104C335.367 837.104 335.949 836.848 336.386 836.336C336.823 835.813 337.042 835.072 337.042 834.112C337.042 833.141 336.823 832.4 336.386 831.888C335.949 831.376 335.367 831.12 334.642 831.12C333.906 831.12 333.319 831.376 332.882 831.888C332.455 832.4 332.242 833.141 332.242 834.112C332.242 835.072 332.455 835.813 332.882 836.336C333.319 836.848 333.906 837.104 334.642 837.104ZM344.05 838.144C343.293 838.144 342.637 837.979 342.082 837.648C341.528 837.317 341.096 836.853 340.786 836.256C340.488 835.648 340.338 834.933 340.338 834.112C340.338 833.291 340.488 832.581 340.786 831.984C341.096 831.376 341.528 830.907 342.082 830.576C342.637 830.245 343.293 830.08 344.05 830.08C344.797 830.08 345.448 830.245 346.002 830.576C346.568 830.907 347 831.376 347.298 831.984C347.608 832.581 347.762 833.291 347.762 834.112C347.762 834.933 347.608 835.648 347.298 836.256C347 836.853 346.568 837.317 346.002 837.648C345.448 837.979 344.797 838.144 344.05 838.144ZM344.05 837.104C344.776 837.104 345.357 836.848 345.794 836.336C346.232 835.813 346.45 835.072 346.45 834.112C346.45 833.141 346.232 832.4 345.794 831.888C345.357 831.376 344.776 831.12 344.05 831.12C343.314 831.12 342.728 831.376 342.29 831.888C341.864 832.4 341.65 833.141 341.65 834.112C341.65 835.072 341.864 835.813 342.29 836.336C342.728 836.848 343.314 837.104 344.05 837.104ZM352.173 838.144C351.383 838.144 350.786 837.915 350.381 837.456C349.986 836.987 349.789 836.309 349.789 835.424V826.72H351.085V835.328C351.085 836.469 351.538 837.04 352.445 837.04C352.711 837.04 352.951 837.008 353.165 836.944L353.133 838.032C352.802 838.107 352.482 838.144 352.173 838.144ZM357.757 838.144C357 838.144 356.344 837.979 355.789 837.648C355.234 837.317 354.802 836.853 354.493 836.256C354.194 835.648 354.045 834.933 354.045 834.112C354.045 833.291 354.194 832.581 354.493 831.984C354.802 831.376 355.234 830.907 355.789 830.576C356.344 830.245 357 830.08 357.757 830.08C358.504 830.08 359.154 830.245 359.709 830.576C360.274 830.907 360.706 831.376 361.005 831.984C361.314 832.581 361.469 833.291 361.469 834.112C361.469 834.933 361.314 835.648 361.005 836.256C360.706 836.853 360.274 837.317 359.709 837.648C359.154 837.979 358.504 838.144 357.757 838.144ZM357.757 837.104C358.482 837.104 359.064 836.848 359.501 836.336C359.938 835.813 360.157 835.072 360.157 834.112C360.157 833.141 359.938 832.4 359.501 831.888C359.064 831.376 358.482 831.12 357.757 831.12C357.021 831.12 356.434 831.376 355.997 831.888C355.57 832.4 355.357 833.141 355.357 834.112C355.357 835.072 355.57 835.813 355.997 836.336C356.434 836.848 357.021 837.104 357.757 837.104ZM363.496 838V830.224H364.76V831.616C365.176 830.677 366.029 830.16 367.32 830.064L367.784 830.016L367.88 831.136L367.064 831.232C366.328 831.296 365.768 831.531 365.384 831.936C365 832.331 364.808 832.875 364.808 833.568V838H363.496ZM376.123 838.144C375.515 838.144 374.939 838.059 374.395 837.888C373.851 837.717 373.403 837.477 373.051 837.168L373.467 836.256C373.851 836.565 374.273 836.795 374.731 836.944C375.201 837.083 375.675 837.152 376.155 837.152C376.763 837.152 377.222 837.04 377.531 836.816C377.841 836.592 377.995 836.288 377.995 835.904C377.995 835.605 377.894 835.371 377.691 835.2C377.489 835.019 377.169 834.88 376.731 834.784L375.275 834.464C373.953 834.176 373.291 833.493 373.291 832.416C373.291 831.712 373.569 831.147 374.123 830.72C374.689 830.293 375.425 830.08 376.331 830.08C376.865 830.08 377.371 830.165 377.851 830.336C378.342 830.496 378.747 830.736 379.067 831.056L378.635 831.968C378.326 831.68 377.963 831.461 377.547 831.312C377.142 831.152 376.737 831.072 376.331 831.072C375.734 831.072 375.281 831.189 374.971 831.424C374.662 831.659 374.507 831.968 374.507 832.352C374.507 832.949 374.902 833.333 375.691 833.504L377.147 833.808C377.83 833.957 378.347 834.197 378.699 834.528C379.051 834.848 379.227 835.285 379.227 835.84C379.227 836.555 378.945 837.12 378.379 837.536C377.814 837.941 377.062 838.144 376.123 838.144ZM381.123 828.288V826.832H382.723V828.288H381.123ZM381.283 838V830.224H382.579V838H381.283ZM388.201 838.144C387.284 838.144 386.596 837.904 386.137 837.424C385.679 836.933 385.449 836.229 385.449 835.312V831.232H383.929V830.224H385.449V827.84H386.745V830.224H389.209V831.232H386.745V835.184C386.745 835.792 386.873 836.256 387.129 836.576C387.385 836.885 387.801 837.04 388.377 837.04C388.548 837.04 388.719 837.019 388.889 836.976C389.06 836.933 389.215 836.891 389.353 836.848L389.577 837.84C389.439 837.915 389.236 837.984 388.969 838.048C388.703 838.112 388.447 838.144 388.201 838.144ZM397.392 838.144C396.859 838.144 396.379 838.043 395.952 837.84C395.536 837.627 395.206 837.339 394.96 836.976C394.715 836.613 394.592 836.208 394.592 835.76C394.592 835.195 394.736 834.747 395.024 834.416C395.323 834.085 395.808 833.851 396.48 833.712C397.163 833.563 398.091 833.488 399.264 833.488H399.776V832.992C399.776 832.331 399.638 831.856 399.36 831.568C399.094 831.269 398.662 831.12 398.064 831.12C397.595 831.12 397.142 831.189 396.704 831.328C396.267 831.456 395.819 831.669 395.36 831.968L394.912 831.024C395.318 830.736 395.808 830.507 396.384 830.336C396.971 830.165 397.531 830.08 398.064 830.08C399.067 830.08 399.808 830.325 400.288 830.816C400.779 831.307 401.024 832.069 401.024 833.104V838H399.808V836.656C399.606 837.115 399.291 837.477 398.864 837.744C398.448 838.011 397.958 838.144 397.392 838.144ZM397.6 837.168C398.24 837.168 398.763 836.949 399.168 836.512C399.574 836.064 399.776 835.499 399.776 834.816V834.336H399.28C398.416 834.336 397.734 834.379 397.232 834.464C396.742 834.539 396.395 834.677 396.192 834.88C396 835.072 395.904 835.339 395.904 835.68C395.904 836.117 396.054 836.475 396.352 836.752C396.662 837.029 397.078 837.168 397.6 837.168ZM403.541 838V830.224H404.805V831.536C405.039 831.067 405.365 830.709 405.781 830.464C406.197 830.208 406.682 830.08 407.237 830.08C408.453 830.08 409.231 830.608 409.573 831.664C409.807 831.173 410.154 830.789 410.613 830.512C411.071 830.224 411.599 830.08 412.197 830.08C413.925 830.08 414.789 831.104 414.789 833.152V838H413.493V833.216C413.493 832.501 413.365 831.979 413.109 831.648C412.863 831.307 412.453 831.136 411.877 831.136C411.247 831.136 410.746 831.36 410.373 831.808C409.999 832.256 409.813 832.853 409.813 833.6V838H408.517V833.216C408.517 832.501 408.389 831.979 408.133 831.648C407.887 831.307 407.477 831.136 406.901 831.136C406.261 831.136 405.754 831.36 405.381 831.808C405.018 832.256 404.837 832.853 404.837 833.6V838H403.541ZM420.796 838.144C419.569 838.144 418.599 837.787 417.884 837.072C417.169 836.347 416.812 835.365 416.812 834.128C416.812 833.328 416.972 832.624 417.292 832.016C417.612 831.397 418.049 830.923 418.604 830.592C419.169 830.251 419.82 830.08 420.556 830.08C421.612 830.08 422.439 830.421 423.036 831.104C423.633 831.776 423.932 832.704 423.932 833.888V834.384H418.076C418.119 835.269 418.375 835.947 418.844 836.416C419.313 836.875 419.964 837.104 420.796 837.104C421.265 837.104 421.713 837.035 422.14 836.896C422.567 836.747 422.972 836.507 423.356 836.176L423.804 837.088C423.452 837.419 423.004 837.68 422.46 837.872C421.916 838.053 421.361 838.144 420.796 838.144ZM420.588 831.04C419.852 831.04 419.271 831.269 418.844 831.728C418.417 832.187 418.167 832.789 418.092 833.536H422.812C422.78 832.747 422.572 832.133 422.188 831.696C421.815 831.259 421.281 831.04 420.588 831.04ZM429.008 838.144C428.09 838.144 427.402 837.904 426.944 837.424C426.485 836.933 426.256 836.229 426.256 835.312V831.232H424.736V830.224H426.256V827.84H427.552V830.224H430.016V831.232H427.552V835.184C427.552 835.792 427.68 836.256 427.936 836.576C428.192 836.885 428.608 837.04 429.184 837.04C429.354 837.04 429.525 837.019 429.696 836.976C429.866 836.933 430.021 836.891 430.16 836.848L430.384 837.84C430.245 837.915 430.042 837.984 429.776 838.048C429.509 838.112 429.253 838.144 429.008 838.144ZM432.244 839.824L431.636 839.36C431.871 839.115 432.036 838.88 432.132 838.656C432.239 838.443 432.308 838.224 432.34 838H431.572V836.368H433.204V837.52C433.204 837.957 433.135 838.363 432.996 838.736C432.857 839.109 432.607 839.472 432.244 839.824ZM442.986 838.144C442.207 838.144 441.535 837.979 440.97 837.648C440.405 837.307 439.967 836.832 439.658 836.224C439.359 835.605 439.21 834.885 439.21 834.064C439.21 832.827 439.546 831.856 440.218 831.152C440.89 830.437 441.813 830.08 442.986 830.08C443.466 830.08 443.941 830.165 444.41 830.336C444.879 830.507 445.269 830.747 445.578 831.056L445.13 832C444.821 831.701 444.479 831.483 444.106 831.344C443.743 831.205 443.397 831.136 443.066 831.136C442.255 831.136 441.631 831.392 441.194 831.904C440.757 832.405 440.538 833.131 440.538 834.08C440.538 835.008 440.757 835.744 441.194 836.288C441.631 836.821 442.255 837.088 443.066 837.088C443.397 837.088 443.743 837.019 444.106 836.88C444.479 836.741 444.821 836.517 445.13 836.208L445.578 837.152C445.269 837.461 444.874 837.707 444.394 837.888C443.925 838.059 443.455 838.144 442.986 838.144ZM450.252 838.144C449.495 838.144 448.839 837.979 448.284 837.648C447.729 837.317 447.297 836.853 446.988 836.256C446.689 835.648 446.54 834.933 446.54 834.112C446.54 833.291 446.689 832.581 446.988 831.984C447.297 831.376 447.729 830.907 448.284 830.576C448.839 830.245 449.495 830.08 450.252 830.08C450.999 830.08 451.649 830.245 452.204 830.576C452.769 830.907 453.201 831.376 453.5 831.984C453.809 832.581 453.964 833.291 453.964 834.112C453.964 834.933 453.809 835.648 453.5 836.256C453.201 836.853 452.769 837.317 452.204 837.648C451.649 837.979 450.999 838.144 450.252 838.144ZM450.252 837.104C450.977 837.104 451.559 836.848 451.996 836.336C452.433 835.813 452.652 835.072 452.652 834.112C452.652 833.141 452.433 832.4 451.996 831.888C451.559 831.376 450.977 831.12 450.252 831.12C449.516 831.12 448.929 831.376 448.492 831.888C448.065 832.4 447.852 833.141 447.852 834.112C447.852 835.072 448.065 835.813 448.492 836.336C448.929 836.848 449.516 837.104 450.252 837.104ZM455.991 838V830.224H457.255V831.552C457.511 831.061 457.873 830.693 458.343 830.448C458.812 830.203 459.34 830.08 459.927 830.08C461.772 830.08 462.695 831.104 462.695 833.152V838H461.399V833.232C461.399 832.507 461.255 831.979 460.967 831.648C460.689 831.307 460.241 831.136 459.623 831.136C458.908 831.136 458.337 831.36 457.911 831.808C457.495 832.245 457.287 832.832 457.287 833.568V838H455.991ZM467.788 838.144C467.18 838.144 466.604 838.059 466.06 837.888C465.516 837.717 465.068 837.477 464.716 837.168L465.132 836.256C465.516 836.565 465.938 836.795 466.396 836.944C466.866 837.083 467.34 837.152 467.82 837.152C468.428 837.152 468.887 837.04 469.196 836.816C469.506 836.592 469.66 836.288 469.66 835.904C469.66 835.605 469.559 835.371 469.356 835.2C469.154 835.019 468.834 834.88 468.396 834.784L466.94 834.464C465.618 834.176 464.956 833.493 464.956 832.416C464.956 831.712 465.234 831.147 465.788 830.72C466.354 830.293 467.09 830.08 467.996 830.08C468.53 830.08 469.036 830.165 469.516 830.336C470.007 830.496 470.412 830.736 470.732 831.056L470.3 831.968C469.991 831.68 469.628 831.461 469.212 831.312C468.807 831.152 468.402 831.072 467.996 831.072C467.399 831.072 466.946 831.189 466.636 831.424C466.327 831.659 466.172 831.968 466.172 832.352C466.172 832.949 466.567 833.333 467.356 833.504L468.812 833.808C469.495 833.957 470.012 834.197 470.364 834.528C470.716 834.848 470.892 835.285 470.892 835.84C470.892 836.555 470.61 837.12 470.044 837.536C469.479 837.941 468.727 838.144 467.788 838.144ZM476.452 838.144C475.225 838.144 474.254 837.787 473.54 837.072C472.825 836.347 472.468 835.365 472.468 834.128C472.468 833.328 472.628 832.624 472.948 832.016C473.268 831.397 473.705 830.923 474.26 830.592C474.825 830.251 475.476 830.08 476.212 830.08C477.268 830.08 478.094 830.421 478.692 831.104C479.289 831.776 479.588 832.704 479.588 833.888V834.384H473.732C473.774 835.269 474.03 835.947 474.5 836.416C474.969 836.875 475.62 837.104 476.452 837.104C476.921 837.104 477.369 837.035 477.796 836.896C478.222 836.747 478.628 836.507 479.012 836.176L479.46 837.088C479.108 837.419 478.66 837.68 478.116 837.872C477.572 838.053 477.017 838.144 476.452 838.144ZM476.244 831.04C475.508 831.04 474.926 831.269 474.5 831.728C474.073 832.187 473.822 832.789 473.748 833.536H478.468C478.436 832.747 478.228 832.133 477.844 831.696C477.47 831.259 476.937 831.04 476.244 831.04ZM484.839 838.144C484.061 838.144 483.389 837.979 482.823 837.648C482.258 837.307 481.821 836.832 481.511 836.224C481.213 835.605 481.063 834.885 481.063 834.064C481.063 832.827 481.399 831.856 482.071 831.152C482.743 830.437 483.666 830.08 484.839 830.08C485.319 830.08 485.794 830.165 486.263 830.336C486.733 830.507 487.122 830.747 487.431 831.056L486.983 832C486.674 831.701 486.333 831.483 485.959 831.344C485.597 831.205 485.25 831.136 484.919 831.136C484.109 831.136 483.485 831.392 483.047 831.904C482.61 832.405 482.391 833.131 482.391 834.08C482.391 835.008 482.61 835.744 483.047 836.288C483.485 836.821 484.109 837.088 484.919 837.088C485.25 837.088 485.597 837.019 485.959 836.88C486.333 836.741 486.674 836.517 486.983 836.208L487.431 837.152C487.122 837.461 486.727 837.707 486.247 837.888C485.778 838.059 485.309 838.144 484.839 838.144ZM492.149 838.144C491.232 838.144 490.544 837.904 490.085 837.424C489.627 836.933 489.397 836.229 489.397 835.312V831.232H487.877V830.224H489.397V827.84H490.693V830.224H493.157V831.232H490.693V835.184C490.693 835.792 490.821 836.256 491.077 836.576C491.333 836.885 491.749 837.04 492.325 837.04C492.496 837.04 492.667 837.019 492.837 836.976C493.008 836.933 493.163 836.891 493.301 836.848L493.525 837.84C493.387 837.915 493.184 837.984 492.917 838.048C492.651 838.112 492.395 838.144 492.149 838.144ZM498.129 838.144C496.902 838.144 495.932 837.787 495.217 837.072C494.502 836.347 494.145 835.365 494.145 834.128C494.145 833.328 494.305 832.624 494.625 832.016C494.945 831.397 495.382 830.923 495.937 830.592C496.502 830.251 497.153 830.08 497.889 830.08C498.945 830.08 499.772 830.421 500.369 831.104C500.966 831.776 501.265 832.704 501.265 833.888V834.384H495.409C495.452 835.269 495.708 835.947 496.177 836.416C496.646 836.875 497.297 837.104 498.129 837.104C498.598 837.104 499.046 837.035 499.473 836.896C499.9 836.747 500.305 836.507 500.689 836.176L501.137 837.088C500.785 837.419 500.337 837.68 499.793 837.872C499.249 838.053 498.694 838.144 498.129 838.144ZM497.921 831.04C497.185 831.04 496.604 831.269 496.177 831.728C495.75 832.187 495.5 832.789 495.425 833.536H500.145C500.113 832.747 499.905 832.133 499.521 831.696C499.148 831.259 498.614 831.04 497.921 831.04ZM506.341 838.144C505.423 838.144 504.735 837.904 504.277 837.424C503.818 836.933 503.589 836.229 503.589 835.312V831.232H502.069V830.224H503.589V827.84H504.885V830.224H507.349V831.232H504.885V835.184C504.885 835.792 505.013 836.256 505.269 836.576C505.525 836.885 505.941 837.04 506.517 837.04C506.687 837.04 506.858 837.019 507.029 836.976C507.199 836.933 507.354 836.891 507.493 836.848L507.717 837.84C507.578 837.915 507.375 837.984 507.109 838.048C506.842 838.112 506.586 838.144 506.341 838.144ZM511.646 838.144C509.78 838.144 508.846 837.115 508.846 835.056V830.224H510.142V835.04C510.142 835.733 510.281 836.245 510.558 836.576C510.846 836.907 511.294 837.072 511.902 837.072C512.564 837.072 513.102 836.853 513.518 836.416C513.934 835.968 514.142 835.376 514.142 834.64V830.224H515.438V838H514.174V836.688C513.929 837.157 513.582 837.52 513.134 837.776C512.697 838.021 512.201 838.144 511.646 838.144ZM517.943 838V830.224H519.207V831.616C519.623 830.677 520.477 830.16 521.767 830.064L522.231 830.016L522.327 831.136L521.511 831.232C520.775 831.296 520.215 831.531 519.831 831.936C519.447 832.331 519.255 832.875 519.255 833.568V838H517.943ZM530.395 838.144C529.862 838.144 529.382 838.043 528.955 837.84C528.539 837.627 528.208 837.339 527.963 836.976C527.718 836.613 527.595 836.208 527.595 835.76C527.595 835.195 527.739 834.747 528.027 834.416C528.326 834.085 528.811 833.851 529.483 833.712C530.166 833.563 531.094 833.488 532.267 833.488H532.779V832.992C532.779 832.331 532.64 831.856 532.363 831.568C532.096 831.269 531.664 831.12 531.067 831.12C530.598 831.12 530.144 831.189 529.707 831.328C529.27 831.456 528.822 831.669 528.363 831.968L527.915 831.024C528.32 830.736 528.811 830.507 529.387 830.336C529.974 830.165 530.534 830.08 531.067 830.08C532.07 830.08 532.811 830.325 533.291 830.816C533.782 831.307 534.027 832.069 534.027 833.104V838H532.811V836.656C532.608 837.115 532.294 837.477 531.867 837.744C531.451 838.011 530.96 838.144 530.395 838.144ZM530.603 837.168C531.243 837.168 531.766 836.949 532.171 836.512C532.576 836.064 532.779 835.499 532.779 834.816V834.336H532.283C531.419 834.336 530.736 834.379 530.235 834.464C529.744 834.539 529.398 834.677 529.195 834.88C529.003 835.072 528.907 835.339 528.907 835.68C528.907 836.117 529.056 836.475 529.355 836.752C529.664 837.029 530.08 837.168 530.603 837.168ZM539.471 838.144C538.778 838.144 538.17 837.979 537.647 837.648C537.135 837.317 536.735 836.853 536.447 836.256C536.17 835.648 536.031 834.933 536.031 834.112C536.031 833.28 536.17 832.565 536.447 831.968C536.735 831.36 537.135 830.896 537.647 830.576C538.17 830.245 538.778 830.08 539.471 830.08C540.079 830.08 540.613 830.213 541.071 830.48C541.541 830.747 541.887 831.115 542.111 831.584V826.72H543.407V838H542.143V836.576C541.919 837.067 541.573 837.451 541.103 837.728C540.634 838.005 540.09 838.144 539.471 838.144ZM539.743 837.104C540.469 837.104 541.05 836.848 541.487 836.336C541.925 835.813 542.143 835.072 542.143 834.112C542.143 833.141 541.925 832.4 541.487 831.888C541.05 831.376 540.469 831.12 539.743 831.12C539.007 831.12 538.421 831.376 537.983 831.888C537.557 832.4 537.343 833.141 537.343 834.112C537.343 835.072 537.557 835.813 537.983 836.336C538.421 836.848 539.007 837.104 539.743 837.104ZM545.759 828.288V826.832H547.359V828.288H545.759ZM545.919 838V830.224H547.215V838H545.919ZM549.718 840.88V830.224H550.982V831.616C551.217 831.136 551.564 830.763 552.022 830.496C552.492 830.219 553.036 830.08 553.654 830.08C554.348 830.08 554.95 830.245 555.462 830.576C555.985 830.896 556.385 831.36 556.662 831.968C556.95 832.565 557.094 833.28 557.094 834.112C557.094 834.933 556.95 835.648 556.662 836.256C556.385 836.853 555.985 837.317 555.462 837.648C554.95 837.979 554.348 838.144 553.654 838.144C553.057 838.144 552.524 838.011 552.054 837.744C551.585 837.477 551.238 837.109 551.014 836.64V840.88H549.718ZM553.382 837.104C554.108 837.104 554.689 836.848 555.126 836.336C555.564 835.813 555.782 835.072 555.782 834.112C555.782 833.141 555.564 832.4 555.126 831.888C554.689 831.376 554.108 831.12 553.382 831.12C552.657 831.12 552.076 831.376 551.638 831.888C551.201 832.4 550.982 833.141 550.982 834.112C550.982 835.072 551.201 835.813 551.638 836.336C552.076 836.848 552.657 837.104 553.382 837.104ZM558.966 828.288V826.832H560.566V828.288H558.966ZM559.126 838V830.224H560.422V838H559.126ZM565.549 838.144C564.941 838.144 564.365 838.059 563.821 837.888C563.277 837.717 562.829 837.477 562.477 837.168L562.893 836.256C563.277 836.565 563.698 836.795 564.157 836.944C564.626 837.083 565.101 837.152 565.581 837.152C566.189 837.152 566.648 837.04 566.957 836.816C567.266 836.592 567.421 836.288 567.421 835.904C567.421 835.605 567.32 835.371 567.117 835.2C566.914 835.019 566.594 834.88 566.157 834.784L564.701 834.464C563.378 834.176 562.717 833.493 562.717 832.416C562.717 831.712 562.994 831.147 563.549 830.72C564.114 830.293 564.85 830.08 565.757 830.08C566.29 830.08 566.797 830.165 567.277 830.336C567.768 830.496 568.173 830.736 568.493 831.056L568.061 831.968C567.752 831.68 567.389 831.461 566.973 831.312C566.568 831.152 566.162 831.072 565.757 831.072C565.16 831.072 564.706 831.189 564.397 831.424C564.088 831.659 563.933 831.968 563.933 832.352C563.933 832.949 564.328 833.333 565.117 833.504L566.573 833.808C567.256 833.957 567.773 834.197 568.125 834.528C568.477 834.848 568.653 835.285 568.653 835.84C568.653 836.555 568.37 837.12 567.805 837.536C567.24 837.941 566.488 838.144 565.549 838.144ZM574.004 838.144C573.226 838.144 572.554 837.979 571.988 837.648C571.423 837.307 570.986 836.832 570.676 836.224C570.378 835.605 570.228 834.885 570.228 834.064C570.228 832.827 570.564 831.856 571.236 831.152C571.908 830.437 572.831 830.08 574.004 830.08C574.484 830.08 574.959 830.165 575.428 830.336C575.898 830.507 576.287 830.747 576.596 831.056L576.148 832C575.839 831.701 575.498 831.483 575.124 831.344C574.762 831.205 574.415 831.136 574.084 831.136C573.274 831.136 572.65 831.392 572.212 831.904C571.775 832.405 571.556 833.131 571.556 834.08C571.556 835.008 571.775 835.744 572.212 836.288C572.65 836.821 573.274 837.088 574.084 837.088C574.415 837.088 574.762 837.019 575.124 836.88C575.498 836.741 575.839 836.517 576.148 836.208L576.596 837.152C576.287 837.461 575.892 837.707 575.412 837.888C574.943 838.059 574.474 838.144 574.004 838.144ZM578.034 828.288V826.832H579.634V828.288H578.034ZM578.194 838V830.224H579.49V838H578.194ZM581.993 838V830.224H583.257V831.552C583.513 831.061 583.876 830.693 584.345 830.448C584.815 830.203 585.343 830.08 585.929 830.08C587.775 830.08 588.697 831.104 588.697 833.152V838H587.401V833.232C587.401 832.507 587.257 831.979 586.969 831.648C586.692 831.307 586.244 831.136 585.625 831.136C584.911 831.136 584.34 831.36 583.913 831.808C583.497 832.245 583.289 832.832 583.289 833.568V838H581.993ZM594.607 841.024C593.935 841.024 593.3 840.933 592.703 840.752C592.116 840.581 591.594 840.32 591.135 839.968L591.567 839.024C592.047 839.365 592.522 839.611 592.991 839.76C593.471 839.909 593.988 839.984 594.543 839.984C596.079 839.984 596.847 839.195 596.847 837.616V836.24C596.623 836.731 596.271 837.12 595.791 837.408C595.322 837.685 594.783 837.824 594.175 837.824C593.46 837.824 592.842 837.659 592.319 837.328C591.796 836.997 591.391 836.544 591.103 835.968C590.826 835.381 590.687 834.704 590.687 833.936C590.687 833.168 590.826 832.496 591.103 831.92C591.391 831.333 591.796 830.88 592.319 830.56C592.842 830.24 593.46 830.08 594.175 830.08C594.783 830.08 595.322 830.219 595.791 830.496C596.271 830.773 596.623 831.152 596.847 831.632V830.224H598.111V837.44C598.111 838.635 597.812 839.531 597.215 840.128C596.628 840.725 595.759 841.024 594.607 841.024ZM594.415 836.768C595.162 836.768 595.754 836.512 596.191 836C596.628 835.488 596.847 834.8 596.847 833.936C596.847 833.072 596.628 832.389 596.191 831.888C595.754 831.376 595.162 831.12 594.415 831.12C593.679 831.12 593.092 831.376 592.655 831.888C592.218 832.389 591.999 833.072 591.999 833.936C591.999 834.8 592.218 835.488 592.655 836C593.092 836.512 593.679 836.768 594.415 836.768ZM608.315 838.144C607.089 838.144 606.118 837.787 605.403 837.072C604.689 836.347 604.331 835.365 604.331 834.128C604.331 833.328 604.491 832.624 604.811 832.016C605.131 831.397 605.569 830.923 606.123 830.592C606.689 830.251 607.339 830.08 608.075 830.08C609.131 830.08 609.958 830.421 610.555 831.104C611.153 831.776 611.451 832.704 611.451 833.888V834.384H605.595C605.638 835.269 605.894 835.947 606.363 836.416C606.833 836.875 607.483 837.104 608.315 837.104C608.785 837.104 609.233 837.035 609.659 836.896C610.086 836.747 610.491 836.507 610.875 836.176L611.323 837.088C610.971 837.419 610.523 837.68 609.979 837.872C609.435 838.053 608.881 838.144 608.315 838.144ZM608.107 831.04C607.371 831.04 606.79 831.269 606.363 831.728C605.937 832.187 605.686 832.789 605.611 833.536H610.331C610.299 832.747 610.091 832.133 609.707 831.696C609.334 831.259 608.801 831.04 608.107 831.04ZM615.791 838.144C615.002 838.144 614.404 837.915 613.999 837.456C613.604 836.987 613.407 836.309 613.407 835.424V826.72H614.703V835.328C614.703 836.469 615.156 837.04 616.063 837.04C616.33 837.04 616.57 837.008 616.783 836.944L616.751 838.032C616.42 838.107 616.1 838.144 615.791 838.144ZM618.061 828.288V826.832H619.661V828.288H618.061ZM618.221 838V830.224H619.517V838H618.221ZM625.14 838.144C624.223 838.144 623.535 837.904 623.076 837.424C622.617 836.933 622.388 836.229 622.388 835.312V831.232H620.868V830.224H622.388V827.84H623.684V830.224H626.148V831.232H623.684V835.184C623.684 835.792 623.812 836.256 624.068 836.576C624.324 836.885 624.74 837.04 625.316 837.04C625.487 837.04 625.657 837.019 625.828 836.976C625.999 836.933 626.153 836.891 626.292 836.848L626.516 837.84C626.377 837.915 626.175 837.984 625.908 838.048C625.641 838.112 625.385 838.144 625.14 838.144ZM628.377 839.824L627.769 839.36C628.003 839.115 628.169 838.88 628.265 838.656C628.371 838.443 628.441 838.224 628.473 838H627.705V836.368H629.337V837.52C629.337 837.957 629.267 838.363 629.129 838.736C628.99 839.109 628.739 839.472 628.377 839.824ZM638.447 838.144C637.839 838.144 637.263 838.059 636.719 837.888C636.175 837.717 635.727 837.477 635.375 837.168L635.791 836.256C636.175 836.565 636.596 836.795 637.055 836.944C637.524 837.083 637.999 837.152 638.479 837.152C639.087 837.152 639.545 837.04 639.855 836.816C640.164 836.592 640.319 836.288 640.319 835.904C640.319 835.605 640.217 835.371 640.015 835.2C639.812 835.019 639.492 834.88 639.055 834.784L637.599 834.464C636.276 834.176 635.615 833.493 635.615 832.416C635.615 831.712 635.892 831.147 636.447 830.72C637.012 830.293 637.748 830.08 638.655 830.08C639.188 830.08 639.695 830.165 640.175 830.336C640.665 830.496 641.071 830.736 641.391 831.056L640.959 831.968C640.649 831.68 640.287 831.461 639.871 831.312C639.465 831.152 639.06 831.072 638.655 831.072C638.057 831.072 637.604 831.189 637.295 831.424C636.985 831.659 636.831 831.968 636.831 832.352C636.831 832.949 637.225 833.333 638.015 833.504L639.471 833.808C640.153 833.957 640.671 834.197 641.023 834.528C641.375 834.848 641.551 835.285 641.551 835.84C641.551 836.555 641.268 837.12 640.703 837.536C640.137 837.941 639.385 838.144 638.447 838.144ZM647.11 838.144C645.883 838.144 644.912 837.787 644.198 837.072C643.483 836.347 643.126 835.365 643.126 834.128C643.126 833.328 643.286 832.624 643.606 832.016C643.926 831.397 644.363 830.923 644.918 830.592C645.483 830.251 646.134 830.08 646.87 830.08C647.926 830.08 648.752 830.421 649.35 831.104C649.947 831.776 650.246 832.704 650.246 833.888V834.384H644.39C644.432 835.269 644.688 835.947 645.158 836.416C645.627 836.875 646.278 837.104 647.11 837.104C647.579 837.104 648.027 837.035 648.454 836.896C648.88 836.747 649.286 836.507 649.67 836.176L650.118 837.088C649.766 837.419 649.318 837.68 648.774 837.872C648.23 838.053 647.675 838.144 647.11 838.144ZM646.902 831.04C646.166 831.04 645.584 831.269 645.158 831.728C644.731 832.187 644.48 832.789 644.406 833.536H649.126C649.094 832.747 648.886 832.133 648.502 831.696C648.128 831.259 647.595 831.04 646.902 831.04ZM655.161 838.144C654.468 838.144 653.86 837.979 653.337 837.648C652.825 837.317 652.425 836.853 652.137 836.256C651.86 835.648 651.721 834.933 651.721 834.112C651.721 833.28 651.86 832.565 652.137 831.968C652.425 831.36 652.825 830.896 653.337 830.576C653.86 830.245 654.468 830.08 655.161 830.08C655.769 830.08 656.303 830.213 656.761 830.48C657.231 830.747 657.577 831.115 657.801 831.584V826.72H659.097V838H657.833V836.576C657.609 837.067 657.263 837.451 656.793 837.728C656.324 838.005 655.78 838.144 655.161 838.144ZM655.433 837.104C656.159 837.104 656.74 836.848 657.177 836.336C657.615 835.813 657.833 835.072 657.833 834.112C657.833 833.141 657.615 832.4 657.177 831.888C656.74 831.376 656.159 831.12 655.433 831.12C654.697 831.12 654.111 831.376 653.673 831.888C653.247 832.4 653.033 833.141 653.033 834.112C653.033 835.072 653.247 835.813 653.673 836.336C654.111 836.848 654.697 837.104 655.433 837.104ZM668.759 838.144C668.065 838.144 667.457 837.979 666.935 837.648C666.423 837.317 666.023 836.853 665.735 836.256C665.457 835.648 665.319 834.933 665.319 834.112C665.319 833.28 665.457 832.565 665.735 831.968C666.023 831.36 666.423 830.896 666.935 830.576C667.457 830.245 668.065 830.08 668.759 830.08C669.367 830.08 669.9 830.213 670.359 830.48C670.828 830.747 671.175 831.115 671.399 831.584V826.72H672.695V838H671.431V836.576C671.207 837.067 670.86 837.451 670.391 837.728C669.921 838.005 669.377 838.144 668.759 838.144ZM669.031 837.104C669.756 837.104 670.337 836.848 670.775 836.336C671.212 835.813 671.431 835.072 671.431 834.112C671.431 833.141 671.212 832.4 670.775 831.888C670.337 831.376 669.756 831.12 669.031 831.12C668.295 831.12 667.708 831.376 667.271 831.888C666.844 832.4 666.631 833.141 666.631 834.112C666.631 835.072 666.844 835.813 667.271 836.336C667.708 836.848 668.295 837.104 669.031 837.104ZM678.439 838.144C677.682 838.144 677.026 837.979 676.471 837.648C675.916 837.317 675.484 836.853 675.175 836.256C674.876 835.648 674.727 834.933 674.727 834.112C674.727 833.291 674.876 832.581 675.175 831.984C675.484 831.376 675.916 830.907 676.471 830.576C677.026 830.245 677.682 830.08 678.439 830.08C679.186 830.08 679.836 830.245 680.391 830.576C680.956 830.907 681.388 831.376 681.687 831.984C681.996 832.581 682.151 833.291 682.151 834.112C682.151 834.933 681.996 835.648 681.687 836.256C681.388 836.853 680.956 837.317 680.391 837.648C679.836 837.979 679.186 838.144 678.439 838.144ZM678.439 837.104C679.164 837.104 679.746 836.848 680.183 836.336C680.62 835.813 680.839 835.072 680.839 834.112C680.839 833.141 680.62 832.4 680.183 831.888C679.746 831.376 679.164 831.12 678.439 831.12C677.703 831.12 677.116 831.376 676.679 831.888C676.252 832.4 676.039 833.141 676.039 834.112C676.039 835.072 676.252 835.813 676.679 836.336C677.116 836.848 677.703 837.104 678.439 837.104ZM691.871 838.144C690.644 838.144 689.674 837.787 688.959 837.072C688.244 836.347 687.887 835.365 687.887 834.128C687.887 833.328 688.047 832.624 688.367 832.016C688.687 831.397 689.124 830.923 689.679 830.592C690.244 830.251 690.895 830.08 691.631 830.08C692.687 830.08 693.514 830.421 694.111 831.104C694.708 831.776 695.007 832.704 695.007 833.888V834.384H689.151C689.194 835.269 689.45 835.947 689.919 836.416C690.388 836.875 691.039 837.104 691.871 837.104C692.34 837.104 692.788 837.035 693.215 836.896C693.642 836.747 694.047 836.507 694.431 836.176L694.879 837.088C694.527 837.419 694.079 837.68 693.535 837.872C692.991 838.053 692.436 838.144 691.871 838.144ZM691.663 831.04C690.927 831.04 690.346 831.269 689.919 831.728C689.492 832.187 689.242 832.789 689.167 833.536H693.887C693.855 832.747 693.647 832.133 693.263 831.696C692.89 831.259 692.356 831.04 691.663 831.04ZM696.803 828.288V826.832H698.403V828.288H696.803ZM696.963 838V830.224H698.259V838H696.963ZM703.513 838.144C701.647 838.144 700.713 837.115 700.713 835.056V830.224H702.009V835.04C702.009 835.733 702.148 836.245 702.425 836.576C702.713 836.907 703.161 837.072 703.769 837.072C704.431 837.072 704.969 836.853 705.385 836.416C705.801 835.968 706.009 835.376 706.009 834.64V830.224H707.305V838H706.041V836.688C705.796 837.157 705.449 837.52 705.001 837.776C704.564 838.021 704.068 838.144 703.513 838.144ZM712.434 838.144C711.826 838.144 711.25 838.059 710.706 837.888C710.162 837.717 709.714 837.477 709.362 837.168L709.778 836.256C710.162 836.565 710.583 836.795 711.042 836.944C711.511 837.083 711.986 837.152 712.466 837.152C713.074 837.152 713.533 837.04 713.842 836.816C714.151 836.592 714.306 836.288 714.306 835.904C714.306 835.605 714.205 835.371 714.002 835.2C713.799 835.019 713.479 834.88 713.042 834.784L711.586 834.464C710.263 834.176 709.602 833.493 709.602 832.416C709.602 831.712 709.879 831.147 710.434 830.72C710.999 830.293 711.735 830.08 712.642 830.08C713.175 830.08 713.682 830.165 714.162 830.336C714.653 830.496 715.058 830.736 715.378 831.056L714.946 831.968C714.637 831.68 714.274 831.461 713.858 831.312C713.453 831.152 713.047 831.072 712.642 831.072C712.045 831.072 711.591 831.189 711.282 831.424C710.973 831.659 710.818 831.968 710.818 832.352C710.818 832.949 711.213 833.333 712.002 833.504L713.458 833.808C714.141 833.957 714.658 834.197 715.01 834.528C715.362 834.848 715.538 835.285 715.538 835.84C715.538 836.555 715.255 837.12 714.69 837.536C714.125 837.941 713.373 838.144 712.434 838.144ZM717.625 838V830.224H718.889V831.536C719.124 831.067 719.449 830.709 719.865 830.464C720.281 830.208 720.767 830.08 721.321 830.08C722.537 830.08 723.316 830.608 723.657 831.664C723.892 831.173 724.239 830.789 724.697 830.512C725.156 830.224 725.684 830.08 726.281 830.08C728.009 830.08 728.873 831.104 728.873 833.152V838H727.577V833.216C727.577 832.501 727.449 831.979 727.193 831.648C726.948 831.307 726.537 831.136 725.961 831.136C725.332 831.136 724.831 831.36 724.457 831.808C724.084 832.256 723.897 832.853 723.897 833.6V838H722.601V833.216C722.601 832.501 722.473 831.979 722.217 831.648C721.972 831.307 721.561 831.136 720.985 831.136C720.345 831.136 719.839 831.36 719.465 831.808C719.103 832.256 718.921 832.853 718.921 833.6V838H717.625ZM734.608 838.144C733.851 838.144 733.195 837.979 732.64 837.648C732.086 837.317 731.654 836.853 731.344 836.256C731.046 835.648 730.896 834.933 730.896 834.112C730.896 833.291 731.046 832.581 731.344 831.984C731.654 831.376 732.086 830.907 732.64 830.576C733.195 830.245 733.851 830.08 734.608 830.08C735.355 830.08 736.006 830.245 736.56 830.576C737.126 830.907 737.558 831.376 737.856 831.984C738.166 832.581 738.32 833.291 738.32 834.112C738.32 834.933 738.166 835.648 737.856 836.256C737.558 836.853 737.126 837.317 736.56 837.648C736.006 837.979 735.355 838.144 734.608 838.144ZM734.608 837.104C735.334 837.104 735.915 836.848 736.352 836.336C736.79 835.813 737.008 835.072 737.008 834.112C737.008 833.141 736.79 832.4 736.352 831.888C735.915 831.376 735.334 831.12 734.608 831.12C733.872 831.12 733.286 831.376 732.848 831.888C732.422 832.4 732.208 833.141 732.208 834.112C732.208 835.072 732.422 835.813 732.848 836.336C733.286 836.848 733.872 837.104 734.608 837.104ZM743.307 838.144C742.614 838.144 742.006 837.979 741.483 837.648C740.971 837.317 740.571 836.853 740.283 836.256C740.006 835.648 739.867 834.933 739.867 834.112C739.867 833.28 740.006 832.565 740.283 831.968C740.571 831.36 740.971 830.896 741.483 830.576C742.006 830.245 742.614 830.08 743.307 830.08C743.915 830.08 744.448 830.213 744.907 830.48C745.376 830.747 745.723 831.115 745.947 831.584V826.72H747.243V838H745.979V836.576C745.755 837.067 745.408 837.451 744.939 837.728C744.47 838.005 743.926 838.144 743.307 838.144ZM743.579 837.104C744.304 837.104 744.886 836.848 745.323 836.336C745.76 835.813 745.979 835.072 745.979 834.112C745.979 833.141 745.76 832.4 745.323 831.888C744.886 831.376 744.304 831.12 743.579 831.12C742.843 831.12 742.256 831.376 741.819 831.888C741.392 832.4 741.179 833.141 741.179 834.112C741.179 835.072 741.392 835.813 741.819 836.336C742.256 836.848 742.843 837.104 743.579 837.104ZM757.064 838.144C756.147 838.144 755.459 837.904 755 837.424C754.542 836.933 754.312 836.229 754.312 835.312V831.232H752.792V830.224H754.312V827.84H755.608V830.224H758.072V831.232H755.608V835.184C755.608 835.792 755.736 836.256 755.992 836.576C756.248 836.885 756.664 837.04 757.24 837.04C757.411 837.04 757.582 837.019 757.752 836.976C757.923 836.933 758.078 836.891 758.216 836.848L758.44 837.84C758.302 837.915 758.099 837.984 757.832 838.048C757.566 838.112 757.31 838.144 757.064 838.144ZM763.044 838.144C761.817 838.144 760.847 837.787 760.132 837.072C759.417 836.347 759.06 835.365 759.06 834.128C759.06 833.328 759.22 832.624 759.54 832.016C759.86 831.397 760.297 830.923 760.852 830.592C761.417 830.251 762.068 830.08 762.804 830.08C763.86 830.08 764.687 830.421 765.284 831.104C765.881 831.776 766.18 832.704 766.18 833.888V834.384H760.324C760.367 835.269 760.623 835.947 761.092 836.416C761.561 836.875 762.212 837.104 763.044 837.104C763.513 837.104 763.961 837.035 764.388 836.896C764.815 836.747 765.22 836.507 765.604 836.176L766.052 837.088C765.7 837.419 765.252 837.68 764.708 837.872C764.164 838.053 763.609 838.144 763.044 838.144ZM762.836 831.04C762.1 831.04 761.519 831.269 761.092 831.728C760.665 832.187 760.415 832.789 760.34 833.536H765.06C765.028 832.747 764.82 832.133 764.436 831.696C764.063 831.259 763.529 831.04 762.836 831.04ZM768.168 838V830.224H769.432V831.536C769.666 831.067 769.992 830.709 770.408 830.464C770.824 830.208 771.309 830.08 771.864 830.08C773.08 830.08 773.858 830.608 774.2 831.664C774.434 831.173 774.781 830.789 775.24 830.512C775.698 830.224 776.226 830.08 776.824 830.08C778.552 830.08 779.416 831.104 779.416 833.152V838H778.12V833.216C778.12 832.501 777.992 831.979 777.736 831.648C777.49 831.307 777.08 831.136 776.504 831.136C775.874 831.136 775.373 831.36 775 831.808C774.626 832.256 774.44 832.853 774.44 833.6V838H773.144V833.216C773.144 832.501 773.016 831.979 772.76 831.648C772.514 831.307 772.104 831.136 771.528 831.136C770.888 831.136 770.381 831.36 770.008 831.808C769.645 832.256 769.464 832.853 769.464 833.6V838H768.168ZM781.919 840.88V830.224H783.183V831.616C783.417 831.136 783.764 830.763 784.223 830.496C784.692 830.219 785.236 830.08 785.855 830.08C786.548 830.08 787.151 830.245 787.663 830.576C788.185 830.896 788.585 831.36 788.863 831.968C789.151 832.565 789.295 833.28 789.295 834.112C789.295 834.933 789.151 835.648 788.863 836.256C788.585 836.853 788.185 837.317 787.663 837.648C787.151 837.979 786.548 838.144 785.855 838.144C785.257 838.144 784.724 838.011 784.255 837.744C783.785 837.477 783.439 837.109 783.215 836.64V840.88H781.919ZM785.583 837.104C786.308 837.104 786.889 836.848 787.327 836.336C787.764 835.813 787.983 835.072 787.983 834.112C787.983 833.141 787.764 832.4 787.327 831.888C786.889 831.376 786.308 831.12 785.583 831.12C784.857 831.12 784.276 831.376 783.839 831.888C783.401 832.4 783.183 833.141 783.183 834.112C783.183 835.072 783.401 835.813 783.839 836.336C784.276 836.848 784.857 837.104 785.583 837.104ZM794.559 838.144C793.802 838.144 793.146 837.979 792.591 837.648C792.036 837.317 791.604 836.853 791.295 836.256C790.996 835.648 790.847 834.933 790.847 834.112C790.847 833.291 790.996 832.581 791.295 831.984C791.604 831.376 792.036 830.907 792.591 830.576C793.146 830.245 793.802 830.08 794.559 830.08C795.306 830.08 795.956 830.245 796.511 830.576C797.076 830.907 797.508 831.376 797.807 831.984C798.116 832.581 798.271 833.291 798.271 834.112C798.271 834.933 798.116 835.648 797.807 836.256C797.508 836.853 797.076 837.317 796.511 837.648C795.956 837.979 795.306 838.144 794.559 838.144ZM794.559 837.104C795.284 837.104 795.866 836.848 796.303 836.336C796.74 835.813 796.959 835.072 796.959 834.112C796.959 833.141 796.74 832.4 796.303 831.888C795.866 831.376 795.284 831.12 794.559 831.12C793.823 831.12 793.236 831.376 792.799 831.888C792.372 832.4 792.159 833.141 792.159 834.112C792.159 835.072 792.372 835.813 792.799 836.336C793.236 836.848 793.823 837.104 794.559 837.104ZM800.298 838V830.224H801.562V831.616C801.978 830.677 802.831 830.16 804.122 830.064L804.586 830.016L804.682 831.136L803.866 831.232C803.13 831.296 802.57 831.531 802.186 831.936C801.802 832.331 801.61 832.875 801.61 833.568V838H800.298ZM810.141 828.288V826.832H811.741V828.288H810.141ZM810.301 838V830.224H811.597V838H810.301ZM814.1 838V830.224H815.364V831.552C815.62 831.061 815.983 830.693 816.452 830.448C816.921 830.203 817.449 830.08 818.036 830.08C819.881 830.08 820.804 831.104 820.804 833.152V838H819.508V833.232C819.508 832.507 819.364 831.979 819.076 831.648C818.799 831.307 818.351 831.136 817.732 831.136C817.017 831.136 816.447 831.36 816.02 831.808C815.604 832.245 815.396 832.832 815.396 833.568V838H814.1ZM826.57 838.144C825.791 838.144 825.119 837.979 824.554 837.648C823.988 837.307 823.551 836.832 823.242 836.224C822.943 835.605 822.794 834.885 822.794 834.064C822.794 832.827 823.13 831.856 823.802 831.152C824.474 830.437 825.396 830.08 826.57 830.08C827.05 830.08 827.524 830.165 827.994 830.336C828.463 830.507 828.852 830.747 829.162 831.056L828.714 832C828.404 831.701 828.063 831.483 827.69 831.344C827.327 831.205 826.98 831.136 826.65 831.136C825.839 831.136 825.215 831.392 824.778 831.904C824.34 832.405 824.122 833.131 824.122 834.08C824.122 835.008 824.34 835.744 824.778 836.288C825.215 836.821 825.839 837.088 826.65 837.088C826.98 837.088 827.327 837.019 827.69 836.88C828.063 836.741 828.404 836.517 828.714 836.208L829.162 837.152C828.852 837.461 828.458 837.707 827.978 837.888C827.508 838.059 827.039 838.144 826.57 838.144ZM830.6 828.288V826.832H832.2V828.288H830.6ZM830.76 838V830.224H832.056V838H830.76ZM837.519 838.144C836.826 838.144 836.218 837.979 835.695 837.648C835.183 837.317 834.783 836.853 834.495 836.256C834.218 835.648 834.079 834.933 834.079 834.112C834.079 833.28 834.218 832.565 834.495 831.968C834.783 831.36 835.183 830.896 835.695 830.576C836.218 830.245 836.826 830.08 837.519 830.08C838.127 830.08 838.66 830.213 839.119 830.48C839.588 830.747 839.935 831.115 840.159 831.584V826.72H841.455V838H840.191V836.576C839.967 837.067 839.62 837.451 839.151 837.728C838.682 838.005 838.138 838.144 837.519 838.144ZM837.791 837.104C838.516 837.104 839.098 836.848 839.535 836.336C839.972 835.813 840.191 835.072 840.191 834.112C840.191 833.141 839.972 832.4 839.535 831.888C839.098 831.376 838.516 831.12 837.791 831.12C837.055 831.12 836.468 831.376 836.031 831.888C835.604 832.4 835.391 833.141 835.391 834.112C835.391 835.072 835.604 835.813 836.031 836.336C836.468 836.848 837.055 837.104 837.791 837.104ZM843.807 828.288V826.832H845.407V828.288H843.807ZM843.967 838V830.224H845.263V838H843.967ZM850.726 838.144C850.032 838.144 849.424 837.979 848.902 837.648C848.39 837.317 847.99 836.853 847.702 836.256C847.424 835.648 847.286 834.933 847.286 834.112C847.286 833.28 847.424 832.565 847.702 831.968C847.99 831.36 848.39 830.896 848.902 830.576C849.424 830.245 850.032 830.08 850.726 830.08C851.334 830.08 851.867 830.213 852.326 830.48C852.795 830.747 853.142 831.115 853.366 831.584V826.72H854.662V838H853.398V836.576C853.174 837.067 852.827 837.451 852.358 837.728C851.888 838.005 851.344 838.144 850.726 838.144ZM850.998 837.104C851.723 837.104 852.304 836.848 852.742 836.336C853.179 835.813 853.398 835.072 853.398 834.112C853.398 833.141 853.179 832.4 852.742 831.888C852.304 831.376 851.723 831.12 850.998 831.12C850.262 831.12 849.675 831.376 849.238 831.888C848.811 832.4 848.598 833.141 848.598 834.112C848.598 835.072 848.811 835.813 849.238 836.336C849.675 836.848 850.262 837.104 850.998 837.104ZM859.926 838.144C858.059 838.144 857.126 837.115 857.126 835.056V830.224H858.422V835.04C858.422 835.733 858.56 836.245 858.838 836.576C859.126 836.907 859.574 837.072 860.182 837.072C860.843 837.072 861.382 836.853 861.798 836.416C862.214 835.968 862.422 835.376 862.422 834.64V830.224H863.718V838H862.454V836.688C862.208 837.157 861.862 837.52 861.414 837.776C860.976 838.021 860.48 838.144 859.926 838.144ZM866.223 838V830.224H867.487V831.552C867.743 831.061 868.105 830.693 868.575 830.448C869.044 830.203 869.572 830.08 870.159 830.08C872.004 830.08 872.927 831.104 872.927 833.152V838H871.631V833.232C871.631 832.507 871.487 831.979 871.199 831.648C870.921 831.307 870.473 831.136 869.855 831.136C869.14 831.136 868.569 831.36 868.143 831.808C867.727 832.245 867.519 832.832 867.519 833.568V838H866.223ZM878.516 838.144C877.599 838.144 876.911 837.904 876.452 837.424C875.994 836.933 875.764 836.229 875.764 835.312V831.232H874.244V830.224H875.764V827.84H877.06V830.224H879.524V831.232H877.06V835.184C877.06 835.792 877.188 836.256 877.444 836.576C877.7 836.885 878.116 837.04 878.692 837.04C878.863 837.04 879.034 837.019 879.204 836.976C879.375 836.933 879.53 836.891 879.668 836.848L879.892 837.84C879.754 837.915 879.551 837.984 879.284 838.048C879.018 838.112 878.762 838.144 878.516 838.144ZM888.011 838.144C886.145 838.144 885.211 837.115 885.211 835.056V830.224H886.507V835.04C886.507 835.733 886.646 836.245 886.923 836.576C887.211 836.907 887.659 837.072 888.267 837.072C888.929 837.072 889.467 836.853 889.883 836.416C890.299 835.968 890.507 835.376 890.507 834.64V830.224H891.803V838H890.539V836.688C890.294 837.157 889.947 837.52 889.499 837.776C889.062 838.021 888.566 838.144 888.011 838.144ZM897.428 838.144C896.511 838.144 895.823 837.904 895.364 837.424C894.906 836.933 894.676 836.229 894.676 835.312V831.232H893.156V830.224H894.676V827.84H895.972V830.224H898.436V831.232H895.972V835.184C895.972 835.792 896.1 836.256 896.356 836.576C896.612 836.885 897.028 837.04 897.604 837.04C897.775 837.04 897.946 837.019 898.116 836.976C898.287 836.933 898.442 836.891 898.58 836.848L898.804 837.84C898.666 837.915 898.463 837.984 898.196 838.048C897.93 838.112 897.674 838.144 897.428 838.144ZM458.659 860.144C457.869 860.144 457.272 859.915 456.867 859.456C456.472 858.987 456.275 858.309 456.275 857.424V848.72H457.571V857.328C457.571 858.469 458.024 859.04 458.931 859.04C459.197 859.04 459.437 859.008 459.651 858.944L459.619 860.032C459.288 860.107 458.968 860.144 458.659 860.144ZM463.537 860.144C463.004 860.144 462.524 860.043 462.097 859.84C461.681 859.627 461.35 859.339 461.105 858.976C460.86 858.613 460.737 858.208 460.737 857.76C460.737 857.195 460.881 856.747 461.169 856.416C461.468 856.085 461.953 855.851 462.625 855.712C463.308 855.563 464.236 855.488 465.409 855.488H465.921V854.992C465.921 854.331 465.782 853.856 465.505 853.568C465.238 853.269 464.806 853.12 464.209 853.12C463.74 853.12 463.286 853.189 462.849 853.328C462.412 853.456 461.964 853.669 461.505 853.968L461.057 853.024C461.462 852.736 461.953 852.507 462.529 852.336C463.116 852.165 463.676 852.08 464.209 852.08C465.212 852.08 465.953 852.325 466.433 852.816C466.924 853.307 467.169 854.069 467.169 855.104V860H465.953V858.656C465.75 859.115 465.436 859.477 465.009 859.744C464.593 860.011 464.102 860.144 463.537 860.144ZM463.745 859.168C464.385 859.168 464.908 858.949 465.313 858.512C465.718 858.064 465.921 857.499 465.921 856.816V856.336H465.425C464.561 856.336 463.878 856.379 463.377 856.464C462.886 856.539 462.54 856.677 462.337 856.88C462.145 857.072 462.049 857.339 462.049 857.68C462.049 858.117 462.198 858.475 462.497 858.752C462.806 859.029 463.222 859.168 463.745 859.168ZM473.59 860.144C472.971 860.144 472.427 860.005 471.958 859.728C471.499 859.451 471.152 859.072 470.918 858.592V860H469.654V848.72H470.95V853.568C471.174 853.109 471.52 852.747 471.99 852.48C472.459 852.213 472.992 852.08 473.59 852.08C474.283 852.08 474.886 852.245 475.398 852.576C475.92 852.896 476.32 853.36 476.598 853.968C476.886 854.565 477.03 855.28 477.03 856.112C477.03 856.933 476.886 857.648 476.598 858.256C476.32 858.853 475.92 859.317 475.398 859.648C474.886 859.979 474.283 860.144 473.59 860.144ZM473.318 859.104C474.043 859.104 474.624 858.848 475.062 858.336C475.499 857.813 475.718 857.072 475.718 856.112C475.718 855.141 475.499 854.4 475.062 853.888C474.624 853.376 474.043 853.12 473.318 853.12C472.592 853.12 472.011 853.376 471.574 853.888C471.136 854.4 470.918 855.141 470.918 856.112C470.918 857.072 471.136 857.813 471.574 858.336C472.011 858.848 472.592 859.104 473.318 859.104ZM482.294 860.144C481.536 860.144 480.88 859.979 480.326 859.648C479.771 859.317 479.339 858.853 479.03 858.256C478.731 857.648 478.582 856.933 478.582 856.112C478.582 855.291 478.731 854.581 479.03 853.984C479.339 853.376 479.771 852.907 480.326 852.576C480.88 852.245 481.536 852.08 482.294 852.08C483.04 852.08 483.691 852.245 484.246 852.576C484.811 852.907 485.243 853.376 485.542 853.984C485.851 854.581 486.006 855.291 486.006 856.112C486.006 856.933 485.851 857.648 485.542 858.256C485.243 858.853 484.811 859.317 484.246 859.648C483.691 859.979 483.04 860.144 482.294 860.144ZM482.294 859.104C483.019 859.104 483.6 858.848 484.038 858.336C484.475 857.813 484.694 857.072 484.694 856.112C484.694 855.141 484.475 854.4 484.038 853.888C483.6 853.376 483.019 853.12 482.294 853.12C481.558 853.12 480.971 853.376 480.534 853.888C480.107 854.4 479.894 855.141 479.894 856.112C479.894 857.072 480.107 857.813 480.534 858.336C480.971 858.848 481.558 859.104 482.294 859.104ZM488.032 860V852.224H489.296V853.616C489.712 852.677 490.566 852.16 491.856 852.064L492.32 852.016L492.416 853.136L491.6 853.232C490.864 853.296 490.304 853.531 489.92 853.936C489.536 854.331 489.344 854.875 489.344 855.568V860H488.032ZM497.257 860.144C496.03 860.144 495.06 859.787 494.345 859.072C493.63 858.347 493.273 857.365 493.273 856.128C493.273 855.328 493.433 854.624 493.753 854.016C494.073 853.397 494.51 852.923 495.065 852.592C495.63 852.251 496.281 852.08 497.017 852.08C498.073 852.08 498.9 852.421 499.497 853.104C500.094 853.776 500.393 854.704 500.393 855.888V856.384H494.537C494.58 857.269 494.836 857.947 495.305 858.416C495.774 858.875 496.425 859.104 497.257 859.104C497.726 859.104 498.174 859.035 498.601 858.896C499.028 858.747 499.433 858.507 499.817 858.176L500.265 859.088C499.913 859.419 499.465 859.68 498.921 859.872C498.377 860.053 497.822 860.144 497.257 860.144ZM497.049 853.04C496.313 853.04 495.732 853.269 495.305 853.728C494.878 854.187 494.628 854.789 494.553 855.536H499.273C499.241 854.747 499.033 854.133 498.649 853.696C498.276 853.259 497.742 853.04 497.049 853.04ZM510.042 860.144C508.815 860.144 507.845 859.787 507.13 859.072C506.415 858.347 506.058 857.365 506.058 856.128C506.058 855.328 506.218 854.624 506.538 854.016C506.858 853.397 507.295 852.923 507.85 852.592C508.415 852.251 509.066 852.08 509.802 852.08C510.858 852.08 511.685 852.421 512.282 853.104C512.879 853.776 513.178 854.704 513.178 855.888V856.384H507.322C507.365 857.269 507.621 857.947 508.09 858.416C508.559 858.875 509.21 859.104 510.042 859.104C510.511 859.104 510.959 859.035 511.386 858.896C511.813 858.747 512.218 858.507 512.602 858.176L513.05 859.088C512.698 859.419 512.25 859.68 511.706 859.872C511.162 860.053 510.607 860.144 510.042 860.144ZM509.834 853.04C509.098 853.04 508.517 853.269 508.09 853.728C507.663 854.187 507.413 854.789 507.338 855.536H512.058C512.026 854.747 511.818 854.133 511.434 853.696C511.061 853.259 510.527 853.04 509.834 853.04ZM518.253 860.144C517.336 860.144 516.648 859.904 516.189 859.424C515.731 858.933 515.501 858.229 515.501 857.312V853.232H513.981V852.224H515.501V849.84H516.797V852.224H519.261V853.232H516.797V857.184C516.797 857.792 516.925 858.256 517.181 858.576C517.437 858.885 517.853 859.04 518.429 859.04C518.6 859.04 518.771 859.019 518.941 858.976C519.112 858.933 519.267 858.891 519.405 858.848L519.629 859.84C519.491 859.915 519.288 859.984 519.021 860.048C518.755 860.112 518.499 860.144 518.253 860.144ZM527.957 860.144C527.263 860.144 526.655 859.979 526.133 859.648C525.621 859.317 525.221 858.853 524.933 858.256C524.655 857.648 524.517 856.933 524.517 856.112C524.517 855.28 524.655 854.565 524.933 853.968C525.221 853.36 525.621 852.896 526.133 852.576C526.655 852.245 527.263 852.08 527.957 852.08C528.565 852.08 529.098 852.213 529.557 852.48C530.026 852.747 530.373 853.115 530.597 853.584V848.72H531.893V860H530.629V858.576C530.405 859.067 530.058 859.451 529.589 859.728C529.119 860.005 528.575 860.144 527.957 860.144ZM528.229 859.104C528.954 859.104 529.535 858.848 529.973 858.336C530.41 857.813 530.629 857.072 530.629 856.112C530.629 855.141 530.41 854.4 529.973 853.888C529.535 853.376 528.954 853.12 528.229 853.12C527.493 853.12 526.906 853.376 526.469 853.888C526.042 854.4 525.829 855.141 525.829 856.112C525.829 857.072 526.042 857.813 526.469 858.336C526.906 858.848 527.493 859.104 528.229 859.104ZM537.637 860.144C536.879 860.144 536.223 859.979 535.669 859.648C535.114 859.317 534.682 858.853 534.373 858.256C534.074 857.648 533.925 856.933 533.925 856.112C533.925 855.291 534.074 854.581 534.373 853.984C534.682 853.376 535.114 852.907 535.669 852.576C536.223 852.245 536.879 852.08 537.637 852.08C538.383 852.08 539.034 852.245 539.589 852.576C540.154 852.907 540.586 853.376 540.885 853.984C541.194 854.581 541.349 855.291 541.349 856.112C541.349 856.933 541.194 857.648 540.885 858.256C540.586 858.853 540.154 859.317 539.589 859.648C539.034 859.979 538.383 860.144 537.637 860.144ZM537.637 859.104C538.362 859.104 538.943 858.848 539.381 858.336C539.818 857.813 540.037 857.072 540.037 856.112C540.037 855.141 539.818 854.4 539.381 853.888C538.943 853.376 538.362 853.12 537.637 853.12C536.901 853.12 536.314 853.376 535.877 853.888C535.45 854.4 535.237 855.141 535.237 856.112C535.237 857.072 535.45 857.813 535.877 858.336C536.314 858.848 536.901 859.104 537.637 859.104ZM545.759 860.144C544.97 860.144 544.373 859.915 543.967 859.456C543.573 858.987 543.375 858.309 543.375 857.424V848.72H544.671V857.328C544.671 858.469 545.125 859.04 546.031 859.04C546.298 859.04 546.538 859.008 546.751 858.944L546.719 860.032C546.389 860.107 546.069 860.144 545.759 860.144ZM551.344 860.144C550.586 860.144 549.93 859.979 549.376 859.648C548.821 859.317 548.389 858.853 548.08 858.256C547.781 857.648 547.632 856.933 547.632 856.112C547.632 855.291 547.781 854.581 548.08 853.984C548.389 853.376 548.821 852.907 549.376 852.576C549.93 852.245 550.586 852.08 551.344 852.08C552.09 852.08 552.741 852.245 553.296 852.576C553.861 852.907 554.293 853.376 554.592 853.984C554.901 854.581 555.056 855.291 555.056 856.112C555.056 856.933 554.901 857.648 554.592 858.256C554.293 858.853 553.861 859.317 553.296 859.648C552.741 859.979 552.09 860.144 551.344 860.144ZM551.344 859.104C552.069 859.104 552.65 858.848 553.088 858.336C553.525 857.813 553.744 857.072 553.744 856.112C553.744 855.141 553.525 854.4 553.088 853.888C552.65 853.376 552.069 853.12 551.344 853.12C550.608 853.12 550.021 853.376 549.584 853.888C549.157 854.4 548.944 855.141 548.944 856.112C548.944 857.072 549.157 857.813 549.584 858.336C550.021 858.848 550.608 859.104 551.344 859.104ZM557.082 860V852.224H558.346V853.616C558.762 852.677 559.616 852.16 560.906 852.064L561.37 852.016L561.466 853.136L560.65 853.232C559.914 853.296 559.354 853.531 558.97 853.936C558.586 854.331 558.394 854.875 558.394 855.568V860H557.082ZM566.307 860.144C565.08 860.144 564.11 859.787 563.395 859.072C562.68 858.347 562.323 857.365 562.323 856.128C562.323 855.328 562.483 854.624 562.803 854.016C563.123 853.397 563.56 852.923 564.115 852.592C564.68 852.251 565.331 852.08 566.067 852.08C567.123 852.08 567.95 852.421 568.547 853.104C569.144 853.776 569.443 854.704 569.443 855.888V856.384H563.587C563.63 857.269 563.886 857.947 564.355 858.416C564.824 858.875 565.475 859.104 566.307 859.104C566.776 859.104 567.224 859.035 567.651 858.896C568.078 858.747 568.483 858.507 568.867 858.176L569.315 859.088C568.963 859.419 568.515 859.68 567.971 859.872C567.427 860.053 566.872 860.144 566.307 860.144ZM566.099 853.04C565.363 853.04 564.782 853.269 564.355 853.728C563.928 854.187 563.678 854.789 563.603 855.536H568.323C568.291 854.747 568.083 854.133 567.699 853.696C567.326 853.259 566.792 853.04 566.099 853.04ZM575.62 860V852.224H576.884V853.536C577.119 853.067 577.444 852.709 577.86 852.464C578.276 852.208 578.761 852.08 579.316 852.08C580.532 852.08 581.311 852.608 581.652 853.664C581.887 853.173 582.233 852.789 582.692 852.512C583.151 852.224 583.679 852.08 584.276 852.08C586.004 852.08 586.868 853.104 586.868 855.152V860H585.572V855.216C585.572 854.501 585.444 853.979 585.188 853.648C584.943 853.307 584.532 853.136 583.956 853.136C583.327 853.136 582.825 853.36 582.452 853.808C582.079 854.256 581.892 854.853 581.892 855.6V860H580.596V855.216C580.596 854.501 580.468 853.979 580.212 853.648C579.967 853.307 579.556 853.136 578.98 853.136C578.34 853.136 577.833 853.36 577.46 853.808C577.097 854.256 576.916 854.853 576.916 855.6V860H575.62ZM591.819 860.144C591.286 860.144 590.806 860.043 590.379 859.84C589.963 859.627 589.632 859.339 589.387 858.976C589.142 858.613 589.019 858.208 589.019 857.76C589.019 857.195 589.163 856.747 589.451 856.416C589.75 856.085 590.235 855.851 590.907 855.712C591.59 855.563 592.518 855.488 593.691 855.488H594.203V854.992C594.203 854.331 594.064 853.856 593.787 853.568C593.52 853.269 593.088 853.12 592.491 853.12C592.022 853.12 591.568 853.189 591.131 853.328C590.694 853.456 590.246 853.669 589.787 853.968L589.339 853.024C589.744 852.736 590.235 852.507 590.811 852.336C591.398 852.165 591.958 852.08 592.491 852.08C593.494 852.08 594.235 852.325 594.715 852.816C595.206 853.307 595.451 854.069 595.451 855.104V860H594.235V858.656C594.032 859.115 593.718 859.477 593.291 859.744C592.875 860.011 592.384 860.144 591.819 860.144ZM592.027 859.168C592.667 859.168 593.19 858.949 593.595 858.512C594 858.064 594.203 857.499 594.203 856.816V856.336H593.707C592.843 856.336 592.16 856.379 591.659 856.464C591.168 856.539 590.822 856.677 590.619 856.88C590.427 857.072 590.331 857.339 590.331 857.68C590.331 858.117 590.48 858.475 590.779 858.752C591.088 859.029 591.504 859.168 592.027 859.168ZM601.375 863.024C600.703 863.024 600.069 862.933 599.471 862.752C598.885 862.581 598.362 862.32 597.903 861.968L598.335 861.024C598.815 861.365 599.29 861.611 599.759 861.76C600.239 861.909 600.757 861.984 601.311 861.984C602.847 861.984 603.615 861.195 603.615 859.616V858.24C603.391 858.731 603.039 859.12 602.559 859.408C602.09 859.685 601.551 859.824 600.943 859.824C600.229 859.824 599.61 859.659 599.087 859.328C598.565 858.997 598.159 858.544 597.871 857.968C597.594 857.381 597.455 856.704 597.455 855.936C597.455 855.168 597.594 854.496 597.871 853.92C598.159 853.333 598.565 852.88 599.087 852.56C599.61 852.24 600.229 852.08 600.943 852.08C601.551 852.08 602.09 852.219 602.559 852.496C603.039 852.773 603.391 853.152 603.615 853.632V852.224H604.879V859.44C604.879 860.635 604.581 861.531 603.983 862.128C603.397 862.725 602.527 863.024 601.375 863.024ZM601.183 858.768C601.93 858.768 602.522 858.512 602.959 858C603.397 857.488 603.615 856.8 603.615 855.936C603.615 855.072 603.397 854.389 602.959 853.888C602.522 853.376 601.93 853.12 601.183 853.12C600.447 853.12 599.861 853.376 599.423 853.888C598.986 854.389 598.767 855.072 598.767 855.936C598.767 856.8 598.986 857.488 599.423 858C599.861 858.512 600.447 858.768 601.183 858.768ZM607.39 860V852.224H608.654V853.552C608.91 853.061 609.273 852.693 609.742 852.448C610.212 852.203 610.74 852.08 611.326 852.08C613.172 852.08 614.094 853.104 614.094 855.152V860H612.798V855.232C612.798 854.507 612.654 853.979 612.366 853.648C612.089 853.307 611.641 853.136 611.022 853.136C610.308 853.136 609.737 853.36 609.31 853.808C608.894 854.245 608.686 854.832 608.686 855.568V860H607.39ZM619.012 860.144C618.479 860.144 617.999 860.043 617.572 859.84C617.156 859.627 616.825 859.339 616.58 858.976C616.335 858.613 616.212 858.208 616.212 857.76C616.212 857.195 616.356 856.747 616.644 856.416C616.943 856.085 617.428 855.851 618.1 855.712C618.783 855.563 619.711 855.488 620.884 855.488H621.396V854.992C621.396 854.331 621.257 853.856 620.98 853.568C620.713 853.269 620.281 853.12 619.684 853.12C619.215 853.12 618.761 853.189 618.324 853.328C617.887 853.456 617.439 853.669 616.98 853.968L616.532 853.024C616.937 852.736 617.428 852.507 618.004 852.336C618.591 852.165 619.151 852.08 619.684 852.08C620.687 852.08 621.428 852.325 621.908 852.816C622.399 853.307 622.644 854.069 622.644 855.104V860H621.428V858.656C621.225 859.115 620.911 859.477 620.484 859.744C620.068 860.011 619.577 860.144 619.012 860.144ZM619.22 859.168C619.86 859.168 620.383 858.949 620.788 858.512C621.193 858.064 621.396 857.499 621.396 856.816V856.336H620.9C620.036 856.336 619.353 856.379 618.852 856.464C618.361 856.539 618.015 856.677 617.812 856.88C617.62 857.072 617.524 857.339 617.524 857.68C617.524 858.117 617.673 858.475 617.972 858.752C618.281 859.029 618.697 859.168 619.22 859.168ZM631.766 860.144C631.233 860.144 630.753 860.043 630.326 859.84C629.91 859.627 629.579 859.339 629.334 858.976C629.089 858.613 628.966 858.208 628.966 857.76C628.966 857.195 629.11 856.747 629.398 856.416C629.697 856.085 630.182 855.851 630.854 855.712C631.537 855.563 632.465 855.488 633.638 855.488H634.15V854.992C634.15 854.331 634.011 853.856 633.734 853.568C633.467 853.269 633.035 853.12 632.438 853.12C631.969 853.12 631.515 853.189 631.078 853.328C630.641 853.456 630.193 853.669 629.734 853.968L629.286 853.024C629.691 852.736 630.182 852.507 630.758 852.336C631.345 852.165 631.905 852.08 632.438 852.08C633.441 852.08 634.182 852.325 634.662 852.816C635.153 853.307 635.398 854.069 635.398 855.104V860H634.182V858.656C633.979 859.115 633.665 859.477 633.238 859.744C632.822 860.011 632.331 860.144 631.766 860.144ZM631.974 859.168C632.614 859.168 633.137 858.949 633.542 858.512C633.947 858.064 634.15 857.499 634.15 856.816V856.336H633.654C632.79 856.336 632.107 856.379 631.606 856.464C631.115 856.539 630.769 856.677 630.566 856.88C630.374 857.072 630.278 857.339 630.278 857.68C630.278 858.117 630.427 858.475 630.726 858.752C631.035 859.029 631.451 859.168 631.974 859.168ZM640.266 860.144C639.477 860.144 638.88 859.915 638.474 859.456C638.08 858.987 637.882 858.309 637.882 857.424V848.72H639.178V857.328C639.178 858.469 639.632 859.04 640.538 859.04C640.805 859.04 641.045 859.008 641.258 858.944L641.226 860.032C640.896 860.107 640.576 860.144 640.266 860.144ZM642.537 850.288V848.832H644.137V850.288H642.537ZM642.697 860V852.224H643.993V860H642.697ZM652.095 862.88V858.64C651.871 859.099 651.525 859.467 651.055 859.744C650.597 860.011 650.063 860.144 649.455 860.144C648.762 860.144 648.154 859.979 647.631 859.648C647.119 859.317 646.719 858.853 646.431 858.256C646.154 857.648 646.015 856.933 646.015 856.112C646.015 855.28 646.154 854.565 646.431 853.968C646.719 853.36 647.119 852.896 647.631 852.576C648.154 852.245 648.762 852.08 649.455 852.08C650.074 852.08 650.618 852.219 651.087 852.496C651.557 852.773 651.903 853.152 652.127 853.632V852.224H653.391V862.88H652.095ZM649.727 859.104C650.453 859.104 651.034 858.848 651.471 858.336C651.909 857.813 652.127 857.072 652.127 856.112C652.127 855.141 651.909 854.4 651.471 853.888C651.034 853.376 650.453 853.12 649.727 853.12C648.991 853.12 648.405 853.376 647.967 853.888C647.541 854.4 647.327 855.141 647.327 856.112C647.327 857.072 647.541 857.813 647.967 858.336C648.405 858.848 648.991 859.104 649.727 859.104ZM658.656 860.144C656.789 860.144 655.856 859.115 655.856 857.056V852.224H657.152V857.04C657.152 857.733 657.29 858.245 657.568 858.576C657.856 858.907 658.304 859.072 658.911 859.072C659.573 859.072 660.112 858.853 660.528 858.416C660.944 857.968 661.152 857.376 661.152 856.64V852.224H662.448V860H661.184V858.688C660.938 859.157 660.592 859.52 660.144 859.776C659.706 860.021 659.21 860.144 658.656 860.144ZM667.4 860.144C666.867 860.144 666.387 860.043 665.96 859.84C665.544 859.627 665.214 859.339 664.968 858.976C664.723 858.613 664.6 858.208 664.6 857.76C664.6 857.195 664.744 856.747 665.032 856.416C665.331 856.085 665.816 855.851 666.488 855.712C667.171 855.563 668.099 855.488 669.272 855.488H669.784V854.992C669.784 854.331 669.646 853.856 669.368 853.568C669.102 853.269 668.67 853.12 668.072 853.12C667.603 853.12 667.15 853.189 666.712 853.328C666.275 853.456 665.827 853.669 665.368 853.968L664.92 853.024C665.326 852.736 665.816 852.507 666.392 852.336C666.979 852.165 667.539 852.08 668.072 852.08C669.075 852.08 669.816 852.325 670.296 852.816C670.787 853.307 671.032 854.069 671.032 855.104V860H669.816V858.656C669.614 859.115 669.299 859.477 668.872 859.744C668.456 860.011 667.966 860.144 667.4 860.144ZM667.608 859.168C668.248 859.168 668.771 858.949 669.176 858.512C669.582 858.064 669.784 857.499 669.784 856.816V856.336H669.288C668.424 856.336 667.742 856.379 667.24 856.464C666.75 856.539 666.403 856.677 666.2 856.88C666.008 857.072 665.912 857.339 665.912 857.68C665.912 858.117 666.062 858.475 666.36 858.752C666.67 859.029 667.086 859.168 667.608 859.168ZM673.309 860V858.368H674.941V860H673.309Z" fill="#F8F9FD"/>
<defs>
<filter id="filter0_d_1_18613" x="195" y="107.791" width="740.219" height="643.692" filterUnits="userSpaceOnUse" color-interpolation-filters="sRGB">
<feFlood flood-opacity="0" result="BackgroundImageFix"/>
<feColorMatrix in="SourceAlpha" type="matrix" values="0 0 0 0 0 0 0 0 0 0 0 0 0 0 0 0 0 0 127 0" result="hardAlpha"/>
<feOffset dy="12"/>
<feGaussianBlur stdDeviation="24"/>
<feComposite in2="hardAlpha" operator="out"/>
<feColorMatrix type="matrix" values="0 0 0 0 0.0117647 0 0 0 0 0 0 0 0 0 0.215686 0 0 0 0.15 0"/>
<feBlend mode="normal" in2="BackgroundImageFix" result="effect1_dropShadow_1_18613"/>
<feBlend mode="normal" in="SourceGraphic" in2="effect1_dropShadow_1_18613" result="shape"/>
</filter>
</defs>
</svg>
